<mxfile host="app.diagrams.net" agent="Mozilla/5.0 (Windows NT 10.0; Win64; x64) AppleWebKit/537.36 (KHTML, like Gecko) Chrome/131.0.0.0 Safari/537.36" version="25.0.1">
  <diagram name="第 1 页" id="zHeJ2YQxpxI2N5z_kEmK">
    <mxGraphModel dx="2083" dy="1137" grid="1" gridSize="10" guides="1" tooltips="1" connect="1" arrows="1" fold="1" page="1" pageScale="1" pageWidth="1600" pageHeight="900" math="0" shadow="0">
      <root>
        <mxCell id="0" />
        <mxCell id="1" parent="0" />
        <mxCell id="mC9KeTFp0cYL_Ei6fU9d-10" value="" style="endArrow=none;html=1;rounded=0;" parent="1" source="mC9KeTFp0cYL_Ei6fU9d-13" edge="1">
          <mxGeometry width="50" height="50" relative="1" as="geometry">
            <mxPoint x="40" y="90" as="sourcePoint" />
            <mxPoint x="1100" y="90" as="targetPoint" />
          </mxGeometry>
        </mxCell>
        <mxCell id="mC9KeTFp0cYL_Ei6fU9d-11" value="" style="endArrow=none;html=1;rounded=0;" parent="1" edge="1">
          <mxGeometry width="50" height="50" relative="1" as="geometry">
            <mxPoint x="580" y="60" as="sourcePoint" />
            <mxPoint x="640" y="60" as="targetPoint" />
          </mxGeometry>
        </mxCell>
        <mxCell id="mC9KeTFp0cYL_Ei6fU9d-12" value="" style="endArrow=none;html=1;rounded=0;" parent="1" edge="1">
          <mxGeometry width="50" height="50" relative="1" as="geometry">
            <mxPoint x="610" y="90" as="sourcePoint" />
            <mxPoint x="610" y="60" as="targetPoint" />
          </mxGeometry>
        </mxCell>
        <mxCell id="mC9KeTFp0cYL_Ei6fU9d-14" value="" style="endArrow=none;html=1;rounded=0;" parent="1" target="mC9KeTFp0cYL_Ei6fU9d-13" edge="1" source="Um8_nvh1hXhyoKsjVqpz-223">
          <mxGeometry width="50" height="50" relative="1" as="geometry">
            <mxPoint x="60" y="89.99999999999994" as="sourcePoint" />
            <mxPoint x="1560" y="90" as="targetPoint" />
          </mxGeometry>
        </mxCell>
        <mxCell id="mC9KeTFp0cYL_Ei6fU9d-13" value="" style="shape=waypoint;sketch=0;fillStyle=solid;size=6;pointerEvents=1;points=[];fillColor=none;resizable=0;rotatable=0;perimeter=centerPerimeter;snapToPoint=1;" parent="1" vertex="1">
          <mxGeometry x="600" y="80" width="20" height="20" as="geometry" />
        </mxCell>
        <mxCell id="mC9KeTFp0cYL_Ei6fU9d-15" value="" style="endArrow=none;html=1;rounded=0;" parent="1" edge="1" source="Um8_nvh1hXhyoKsjVqpz-147">
          <mxGeometry width="50" height="50" relative="1" as="geometry">
            <mxPoint x="40" y="609" as="sourcePoint" />
            <mxPoint x="1100" y="610" as="targetPoint" />
          </mxGeometry>
        </mxCell>
        <mxCell id="Um8_nvh1hXhyoKsjVqpz-93" style="edgeStyle=orthogonalEdgeStyle;shape=connector;rounded=0;orthogonalLoop=1;jettySize=auto;html=1;exitDx=0;exitDy=0;exitPerimeter=0;strokeColor=default;align=center;verticalAlign=middle;fontFamily=Helvetica;fontSize=11;fontColor=default;labelBackgroundColor=default;endArrow=none;endFill=0;" edge="1" parent="1" source="Um8_nvh1hXhyoKsjVqpz-94">
          <mxGeometry relative="1" as="geometry">
            <mxPoint x="800" y="90" as="targetPoint" />
          </mxGeometry>
        </mxCell>
        <mxCell id="mC9KeTFp0cYL_Ei6fU9d-16" value="" style="verticalLabelPosition=bottom;shadow=0;dashed=0;align=center;html=1;verticalAlign=top;shape=mxgraph.electrical.transistors.pmos;pointerEvents=1;" parent="1" vertex="1">
          <mxGeometry x="740" y="100" width="60" height="100" as="geometry" />
        </mxCell>
        <mxCell id="mC9KeTFp0cYL_Ei6fU9d-18" value="" style="verticalLabelPosition=bottom;shadow=0;dashed=0;align=center;html=1;verticalAlign=top;shape=mxgraph.electrical.transistors.pmos;pointerEvents=1;" parent="1" vertex="1">
          <mxGeometry x="740" y="230" width="60" height="100" as="geometry" />
        </mxCell>
        <mxCell id="Um8_nvh1hXhyoKsjVqpz-6" style="edgeStyle=orthogonalEdgeStyle;shape=connector;rounded=0;orthogonalLoop=1;jettySize=auto;html=1;exitX=1;exitY=1;exitDx=0;exitDy=0;exitPerimeter=0;strokeColor=default;align=center;verticalAlign=middle;fontFamily=Helvetica;fontSize=11;fontColor=default;labelBackgroundColor=default;endArrow=none;endFill=0;" edge="1" parent="1" source="Um8_nvh1hXhyoKsjVqpz-1">
          <mxGeometry relative="1" as="geometry">
            <mxPoint x="60" y="610" as="targetPoint" />
          </mxGeometry>
        </mxCell>
        <mxCell id="Um8_nvh1hXhyoKsjVqpz-23" style="edgeStyle=orthogonalEdgeStyle;shape=connector;rounded=0;orthogonalLoop=1;jettySize=auto;html=1;exitDx=0;exitDy=0;exitPerimeter=0;strokeColor=default;align=center;verticalAlign=middle;fontFamily=Helvetica;fontSize=11;fontColor=default;labelBackgroundColor=default;endArrow=none;endFill=0;" edge="1" parent="1" source="Um8_nvh1hXhyoKsjVqpz-52">
          <mxGeometry relative="1" as="geometry">
            <mxPoint x="320" y="497.3333333333335" as="targetPoint" />
          </mxGeometry>
        </mxCell>
        <mxCell id="Um8_nvh1hXhyoKsjVqpz-1" value="" style="verticalLabelPosition=bottom;shadow=0;dashed=0;align=center;html=1;verticalAlign=top;shape=mxgraph.electrical.transistors.nmos;pointerEvents=1;flipV=0;flipH=1;" vertex="1" parent="1">
          <mxGeometry x="60" y="447.14" width="60" height="100" as="geometry" />
        </mxCell>
        <mxCell id="Um8_nvh1hXhyoKsjVqpz-7" style="edgeStyle=orthogonalEdgeStyle;shape=connector;rounded=0;orthogonalLoop=1;jettySize=auto;html=1;exitX=1;exitY=0;exitDx=0;exitDy=0;exitPerimeter=0;strokeColor=default;align=center;verticalAlign=middle;fontFamily=Helvetica;fontSize=11;fontColor=default;labelBackgroundColor=default;endArrow=none;endFill=0;" edge="1" parent="1" source="Um8_nvh1hXhyoKsjVqpz-4">
          <mxGeometry relative="1" as="geometry">
            <mxPoint x="60" y="89.99999999999994" as="targetPoint" />
          </mxGeometry>
        </mxCell>
        <mxCell id="Um8_nvh1hXhyoKsjVqpz-8" style="edgeStyle=orthogonalEdgeStyle;shape=connector;rounded=0;orthogonalLoop=1;jettySize=auto;html=1;exitX=0;exitY=0.5;exitDx=0;exitDy=0;exitPerimeter=0;strokeColor=default;align=center;verticalAlign=middle;fontFamily=Helvetica;fontSize=11;fontColor=default;labelBackgroundColor=default;endArrow=none;endFill=0;" edge="1" parent="1" source="Um8_nvh1hXhyoKsjVqpz-4">
          <mxGeometry relative="1" as="geometry">
            <mxPoint x="140" y="310" as="targetPoint" />
            <Array as="points">
              <mxPoint x="140" y="230" />
              <mxPoint x="140" y="310" />
            </Array>
          </mxGeometry>
        </mxCell>
        <mxCell id="Um8_nvh1hXhyoKsjVqpz-4" value="" style="verticalLabelPosition=bottom;shadow=0;dashed=0;align=center;html=1;verticalAlign=top;shape=mxgraph.electrical.transistors.pmos;pointerEvents=1;flipH=1;" vertex="1" parent="1">
          <mxGeometry x="60" y="180" width="60" height="100" as="geometry" />
        </mxCell>
        <mxCell id="Um8_nvh1hXhyoKsjVqpz-5" style="edgeStyle=orthogonalEdgeStyle;rounded=0;orthogonalLoop=1;jettySize=auto;html=1;exitX=1;exitY=1;exitDx=0;exitDy=0;exitPerimeter=0;entryX=1;entryY=0;entryDx=0;entryDy=0;entryPerimeter=0;endArrow=none;endFill=0;" edge="1" parent="1" source="Um8_nvh1hXhyoKsjVqpz-4" target="Um8_nvh1hXhyoKsjVqpz-1">
          <mxGeometry relative="1" as="geometry" />
        </mxCell>
        <mxCell id="Um8_nvh1hXhyoKsjVqpz-9" value="" style="endArrow=none;html=1;rounded=0;strokeColor=default;align=center;verticalAlign=middle;fontFamily=Helvetica;fontSize=11;fontColor=default;labelBackgroundColor=default;edgeStyle=orthogonalEdgeStyle;" edge="1" parent="1" target="Um8_nvh1hXhyoKsjVqpz-51">
          <mxGeometry width="50" height="50" relative="1" as="geometry">
            <mxPoint x="140" y="310" as="sourcePoint" />
            <mxPoint x="60" y="310" as="targetPoint" />
          </mxGeometry>
        </mxCell>
        <mxCell id="Um8_nvh1hXhyoKsjVqpz-134" style="edgeStyle=orthogonalEdgeStyle;shape=connector;rounded=0;orthogonalLoop=1;jettySize=auto;html=1;exitX=0;exitY=0.5;exitDx=0;exitDy=0;exitPerimeter=0;strokeColor=default;align=center;verticalAlign=middle;fontFamily=Helvetica;fontSize=11;fontColor=default;labelBackgroundColor=default;endArrow=none;endFill=0;" edge="1" parent="1" source="Um8_nvh1hXhyoKsjVqpz-10">
          <mxGeometry relative="1" as="geometry">
            <mxPoint x="900" y="550" as="targetPoint" />
            <Array as="points">
              <mxPoint x="900" y="417" />
              <mxPoint x="900" y="550" />
            </Array>
          </mxGeometry>
        </mxCell>
        <mxCell id="Um8_nvh1hXhyoKsjVqpz-10" value="" style="verticalLabelPosition=bottom;shadow=0;dashed=0;align=center;html=1;verticalAlign=top;shape=mxgraph.electrical.transistors.nmos;pointerEvents=1;fontFamily=Helvetica;fontSize=11;fontColor=default;labelBackgroundColor=default;flipH=1;" vertex="1" parent="1">
          <mxGeometry x="800" y="367.14" width="60" height="100" as="geometry" />
        </mxCell>
        <mxCell id="Um8_nvh1hXhyoKsjVqpz-90" style="edgeStyle=orthogonalEdgeStyle;shape=connector;rounded=0;orthogonalLoop=1;jettySize=auto;html=1;exitDx=0;exitDy=0;exitPerimeter=0;strokeColor=default;align=center;verticalAlign=middle;fontFamily=Helvetica;fontSize=11;fontColor=default;labelBackgroundColor=default;endArrow=none;endFill=0;" edge="1" parent="1" source="Um8_nvh1hXhyoKsjVqpz-145">
          <mxGeometry relative="1" as="geometry">
            <mxPoint x="800" y="610" as="targetPoint" />
          </mxGeometry>
        </mxCell>
        <mxCell id="Um8_nvh1hXhyoKsjVqpz-113" style="edgeStyle=orthogonalEdgeStyle;shape=connector;rounded=0;orthogonalLoop=1;jettySize=auto;html=1;strokeColor=default;align=center;verticalAlign=middle;fontFamily=Helvetica;fontSize=11;fontColor=default;labelBackgroundColor=default;endArrow=none;endFill=0;" edge="1" parent="1" source="Um8_nvh1hXhyoKsjVqpz-11" target="Um8_nvh1hXhyoKsjVqpz-115">
          <mxGeometry relative="1" as="geometry">
            <mxPoint x="880" y="360" as="targetPoint" />
            <Array as="points">
              <mxPoint x="870" y="550" />
              <mxPoint x="870" y="360" />
            </Array>
          </mxGeometry>
        </mxCell>
        <mxCell id="Um8_nvh1hXhyoKsjVqpz-11" value="" style="verticalLabelPosition=bottom;shadow=0;dashed=0;align=center;html=1;verticalAlign=top;shape=mxgraph.electrical.transistors.nmos;pointerEvents=1;fontFamily=Helvetica;fontSize=11;fontColor=default;labelBackgroundColor=default;flipH=1;" vertex="1" parent="1">
          <mxGeometry x="800" y="500" width="60" height="100" as="geometry" />
        </mxCell>
        <mxCell id="Um8_nvh1hXhyoKsjVqpz-13" style="edgeStyle=orthogonalEdgeStyle;shape=connector;rounded=0;orthogonalLoop=1;jettySize=auto;html=1;exitDx=0;exitDy=0;exitPerimeter=0;strokeColor=default;align=center;verticalAlign=middle;fontFamily=Helvetica;fontSize=11;fontColor=default;labelBackgroundColor=default;endArrow=none;endFill=0;" edge="1" parent="1" source="Um8_nvh1hXhyoKsjVqpz-53">
          <mxGeometry relative="1" as="geometry">
            <mxPoint x="60" y="399.8333333333335" as="targetPoint" />
            <Array as="points">
              <mxPoint x="60" y="370" />
            </Array>
          </mxGeometry>
        </mxCell>
        <mxCell id="Um8_nvh1hXhyoKsjVqpz-26" style="edgeStyle=orthogonalEdgeStyle;shape=connector;rounded=0;orthogonalLoop=1;jettySize=auto;html=1;exitX=1;exitY=0;exitDx=0;exitDy=0;exitPerimeter=0;strokeColor=default;align=center;verticalAlign=middle;fontFamily=Helvetica;fontSize=11;fontColor=default;labelBackgroundColor=default;endArrow=none;endFill=0;" edge="1" parent="1">
          <mxGeometry relative="1" as="geometry">
            <mxPoint x="320" y="230" as="targetPoint" />
            <mxPoint x="170" y="352.8571428571429" as="sourcePoint" />
            <Array as="points">
              <mxPoint x="170" y="230" />
            </Array>
          </mxGeometry>
        </mxCell>
        <mxCell id="Um8_nvh1hXhyoKsjVqpz-35" style="edgeStyle=orthogonalEdgeStyle;shape=connector;rounded=0;orthogonalLoop=1;jettySize=auto;html=1;exitX=1;exitY=1;exitDx=0;exitDy=0;exitPerimeter=0;strokeColor=default;align=center;verticalAlign=middle;fontFamily=Helvetica;fontSize=11;fontColor=default;labelBackgroundColor=default;endArrow=none;endFill=0;" edge="1" parent="1" source="Um8_nvh1hXhyoKsjVqpz-12" target="Um8_nvh1hXhyoKsjVqpz-52">
          <mxGeometry relative="1" as="geometry">
            <mxPoint x="170" y="477" as="targetPoint" />
          </mxGeometry>
        </mxCell>
        <mxCell id="Um8_nvh1hXhyoKsjVqpz-12" value="" style="verticalLabelPosition=bottom;shadow=0;dashed=0;align=center;html=1;verticalAlign=top;shape=mxgraph.electrical.transistors.nmos;pointerEvents=1;fontFamily=Helvetica;fontSize=11;fontColor=default;labelBackgroundColor=default;" vertex="1" parent="1">
          <mxGeometry x="110" y="320" width="60" height="100" as="geometry" />
        </mxCell>
        <mxCell id="Um8_nvh1hXhyoKsjVqpz-33" style="edgeStyle=orthogonalEdgeStyle;shape=connector;rounded=0;orthogonalLoop=1;jettySize=auto;html=1;exitX=1;exitY=0;exitDx=0;exitDy=0;exitPerimeter=0;strokeColor=default;align=center;verticalAlign=middle;fontFamily=Helvetica;fontSize=11;fontColor=default;labelBackgroundColor=default;endArrow=none;endFill=0;" edge="1" parent="1" source="Um8_nvh1hXhyoKsjVqpz-14" target="Um8_nvh1hXhyoKsjVqpz-67">
          <mxGeometry relative="1" as="geometry">
            <mxPoint x="240" y="70" as="targetPoint" />
          </mxGeometry>
        </mxCell>
        <mxCell id="Um8_nvh1hXhyoKsjVqpz-14" value="" style="verticalLabelPosition=bottom;shadow=0;dashed=0;align=center;html=1;verticalAlign=top;shape=mxgraph.electrical.transistors.pmos;pointerEvents=1;flipH=1;" vertex="1" parent="1">
          <mxGeometry x="240" y="180" width="60" height="100" as="geometry" />
        </mxCell>
        <mxCell id="Um8_nvh1hXhyoKsjVqpz-34" style="edgeStyle=orthogonalEdgeStyle;shape=connector;rounded=0;orthogonalLoop=1;jettySize=auto;html=1;exitX=1;exitY=0;exitDx=0;exitDy=0;exitPerimeter=0;strokeColor=default;align=center;verticalAlign=middle;fontFamily=Helvetica;fontSize=11;fontColor=default;labelBackgroundColor=default;endArrow=none;endFill=0;" edge="1" parent="1" source="Um8_nvh1hXhyoKsjVqpz-15" target="Um8_nvh1hXhyoKsjVqpz-66">
          <mxGeometry relative="1" as="geometry">
            <mxPoint x="410" y="70" as="targetPoint" />
          </mxGeometry>
        </mxCell>
        <mxCell id="Um8_nvh1hXhyoKsjVqpz-15" value="" style="verticalLabelPosition=bottom;shadow=0;dashed=0;align=center;html=1;verticalAlign=top;shape=mxgraph.electrical.transistors.pmos;pointerEvents=1;" vertex="1" parent="1">
          <mxGeometry x="350" y="180" width="60" height="100" as="geometry" />
        </mxCell>
        <mxCell id="Um8_nvh1hXhyoKsjVqpz-21" style="edgeStyle=orthogonalEdgeStyle;shape=connector;rounded=0;orthogonalLoop=1;jettySize=auto;html=1;exitX=1;exitY=1;exitDx=0;exitDy=0;exitPerimeter=0;strokeColor=default;align=center;verticalAlign=middle;fontFamily=Helvetica;fontSize=11;fontColor=default;labelBackgroundColor=default;endArrow=none;endFill=0;" edge="1" parent="1" source="Um8_nvh1hXhyoKsjVqpz-16">
          <mxGeometry relative="1" as="geometry">
            <mxPoint x="240" y="610" as="targetPoint" />
          </mxGeometry>
        </mxCell>
        <mxCell id="Um8_nvh1hXhyoKsjVqpz-16" value="" style="verticalLabelPosition=bottom;shadow=0;dashed=0;align=center;html=1;verticalAlign=top;shape=mxgraph.electrical.transistors.nmos;pointerEvents=1;flipV=0;flipH=1;" vertex="1" parent="1">
          <mxGeometry x="240" y="447.14" width="60" height="100" as="geometry" />
        </mxCell>
        <mxCell id="Um8_nvh1hXhyoKsjVqpz-17" value="" style="verticalLabelPosition=bottom;shadow=0;dashed=0;align=center;html=1;verticalAlign=top;shape=mxgraph.electrical.transistors.nmos;pointerEvents=1;fontFamily=Helvetica;fontSize=11;fontColor=default;labelBackgroundColor=default;" vertex="1" parent="1">
          <mxGeometry x="350" y="447.14" width="60" height="100" as="geometry" />
        </mxCell>
        <mxCell id="Um8_nvh1hXhyoKsjVqpz-20" style="edgeStyle=orthogonalEdgeStyle;shape=connector;rounded=0;orthogonalLoop=1;jettySize=auto;html=1;exitDx=0;exitDy=0;exitPerimeter=0;strokeColor=default;align=center;verticalAlign=middle;fontFamily=Helvetica;fontSize=11;fontColor=default;labelBackgroundColor=default;endArrow=none;endFill=0;" edge="1" parent="1" source="Um8_nvh1hXhyoKsjVqpz-64">
          <mxGeometry relative="1" as="geometry">
            <mxPoint x="410" y="610" as="targetPoint" />
          </mxGeometry>
        </mxCell>
        <mxCell id="Um8_nvh1hXhyoKsjVqpz-18" value="" style="pointerEvents=1;verticalLabelPosition=bottom;shadow=0;dashed=0;align=center;html=1;verticalAlign=top;shape=mxgraph.electrical.resistors.resistor_2;fontFamily=Helvetica;fontSize=11;fontColor=default;labelBackgroundColor=default;direction=south;" vertex="1" parent="1">
          <mxGeometry x="405" y="540" width="10" height="60" as="geometry" />
        </mxCell>
        <mxCell id="Um8_nvh1hXhyoKsjVqpz-19" style="edgeStyle=orthogonalEdgeStyle;shape=connector;rounded=0;orthogonalLoop=1;jettySize=auto;html=1;exitX=1;exitY=1;exitDx=0;exitDy=0;exitPerimeter=0;entryX=0;entryY=0.5;entryDx=0;entryDy=0;entryPerimeter=0;strokeColor=default;align=center;verticalAlign=middle;fontFamily=Helvetica;fontSize=11;fontColor=default;labelBackgroundColor=default;endArrow=none;endFill=0;" edge="1" parent="1" source="Um8_nvh1hXhyoKsjVqpz-17">
          <mxGeometry relative="1" as="geometry">
            <mxPoint x="410" y="539.9999999999998" as="targetPoint" />
          </mxGeometry>
        </mxCell>
        <mxCell id="Um8_nvh1hXhyoKsjVqpz-22" style="edgeStyle=orthogonalEdgeStyle;shape=connector;rounded=0;orthogonalLoop=1;jettySize=auto;html=1;exitX=0;exitY=0.5;exitDx=0;exitDy=0;exitPerimeter=0;entryX=0;entryY=0.5;entryDx=0;entryDy=0;entryPerimeter=0;strokeColor=default;align=center;verticalAlign=middle;fontFamily=Helvetica;fontSize=11;fontColor=default;labelBackgroundColor=default;endArrow=none;endFill=0;" edge="1" parent="1" source="Um8_nvh1hXhyoKsjVqpz-16" target="Um8_nvh1hXhyoKsjVqpz-17">
          <mxGeometry relative="1" as="geometry" />
        </mxCell>
        <mxCell id="Um8_nvh1hXhyoKsjVqpz-25" style="edgeStyle=orthogonalEdgeStyle;shape=connector;rounded=0;orthogonalLoop=1;jettySize=auto;html=1;exitDx=0;exitDy=0;exitPerimeter=0;entryX=0;entryY=0.5;entryDx=0;entryDy=0;entryPerimeter=0;strokeColor=default;align=center;verticalAlign=middle;fontFamily=Helvetica;fontSize=11;fontColor=default;labelBackgroundColor=default;endArrow=none;endFill=0;" edge="1" parent="1" source="Um8_nvh1hXhyoKsjVqpz-221" target="Um8_nvh1hXhyoKsjVqpz-15">
          <mxGeometry relative="1" as="geometry" />
        </mxCell>
        <mxCell id="Um8_nvh1hXhyoKsjVqpz-29" style="edgeStyle=orthogonalEdgeStyle;shape=connector;rounded=0;orthogonalLoop=1;jettySize=auto;html=1;exitDx=0;exitDy=0;exitPerimeter=0;strokeColor=default;align=center;verticalAlign=middle;fontFamily=Helvetica;fontSize=11;fontColor=default;labelBackgroundColor=default;endArrow=none;endFill=0;" edge="1" parent="1" source="Um8_nvh1hXhyoKsjVqpz-56">
          <mxGeometry relative="1" as="geometry">
            <mxPoint x="320" y="498" as="targetPoint" />
          </mxGeometry>
        </mxCell>
        <mxCell id="Um8_nvh1hXhyoKsjVqpz-30" style="edgeStyle=orthogonalEdgeStyle;shape=connector;rounded=0;orthogonalLoop=1;jettySize=auto;html=1;exitX=1;exitY=0.5;exitDx=0;exitDy=0;exitPerimeter=0;strokeColor=default;align=center;verticalAlign=middle;fontFamily=Helvetica;fontSize=11;fontColor=default;labelBackgroundColor=default;endArrow=none;endFill=0;" edge="1" parent="1" source="Um8_nvh1hXhyoKsjVqpz-27">
          <mxGeometry relative="1" as="geometry">
            <mxPoint x="320" y="610" as="targetPoint" />
          </mxGeometry>
        </mxCell>
        <mxCell id="Um8_nvh1hXhyoKsjVqpz-27" value="" style="pointerEvents=1;verticalLabelPosition=bottom;shadow=0;dashed=0;align=center;html=1;verticalAlign=top;shape=mxgraph.electrical.capacitors.capacitor_1;fontFamily=Helvetica;fontSize=11;fontColor=default;labelBackgroundColor=default;direction=south;" vertex="1" parent="1">
          <mxGeometry x="310" y="515" width="20" height="70" as="geometry" />
        </mxCell>
        <mxCell id="Um8_nvh1hXhyoKsjVqpz-31" style="edgeStyle=orthogonalEdgeStyle;shape=connector;rounded=0;orthogonalLoop=1;jettySize=auto;html=1;exitX=1;exitY=1;exitDx=0;exitDy=0;exitPerimeter=0;entryX=1;entryY=0;entryDx=0;entryDy=0;entryPerimeter=0;strokeColor=default;align=center;verticalAlign=middle;fontFamily=Helvetica;fontSize=11;fontColor=default;labelBackgroundColor=default;endArrow=none;endFill=0;" edge="1" parent="1" source="Um8_nvh1hXhyoKsjVqpz-14" target="Um8_nvh1hXhyoKsjVqpz-16">
          <mxGeometry relative="1" as="geometry" />
        </mxCell>
        <mxCell id="Um8_nvh1hXhyoKsjVqpz-32" style="edgeStyle=orthogonalEdgeStyle;shape=connector;rounded=0;orthogonalLoop=1;jettySize=auto;html=1;exitX=1;exitY=1;exitDx=0;exitDy=0;exitPerimeter=0;entryX=1;entryY=0;entryDx=0;entryDy=0;entryPerimeter=0;strokeColor=default;align=center;verticalAlign=middle;fontFamily=Helvetica;fontSize=11;fontColor=default;labelBackgroundColor=default;endArrow=none;endFill=0;" edge="1" parent="1" source="Um8_nvh1hXhyoKsjVqpz-15" target="Um8_nvh1hXhyoKsjVqpz-17">
          <mxGeometry relative="1" as="geometry" />
        </mxCell>
        <mxCell id="Um8_nvh1hXhyoKsjVqpz-40" style="edgeStyle=orthogonalEdgeStyle;shape=connector;rounded=0;orthogonalLoop=1;jettySize=auto;html=1;exitX=1;exitY=1;exitDx=0;exitDy=0;exitPerimeter=0;strokeColor=default;align=center;verticalAlign=middle;fontFamily=Helvetica;fontSize=11;fontColor=default;labelBackgroundColor=default;endArrow=none;endFill=0;" edge="1" parent="1" source="Um8_nvh1hXhyoKsjVqpz-36">
          <mxGeometry relative="1" as="geometry">
            <mxPoint x="560" y="610" as="targetPoint" />
          </mxGeometry>
        </mxCell>
        <mxCell id="Um8_nvh1hXhyoKsjVqpz-36" value="" style="verticalLabelPosition=bottom;shadow=0;dashed=0;align=center;html=1;verticalAlign=top;shape=mxgraph.electrical.transistors.nmos;pointerEvents=1;fontFamily=Helvetica;fontSize=11;fontColor=default;labelBackgroundColor=default;" vertex="1" parent="1">
          <mxGeometry x="500" y="500" width="60" height="100" as="geometry" />
        </mxCell>
        <mxCell id="Um8_nvh1hXhyoKsjVqpz-38" style="edgeStyle=orthogonalEdgeStyle;shape=connector;rounded=0;orthogonalLoop=1;jettySize=auto;html=1;exitX=1;exitY=0;exitDx=0;exitDy=0;exitPerimeter=0;strokeColor=default;align=center;verticalAlign=middle;fontFamily=Helvetica;fontSize=11;fontColor=default;labelBackgroundColor=default;endArrow=none;endFill=0;" edge="1" parent="1">
          <mxGeometry relative="1" as="geometry">
            <mxPoint x="560.2608695652175" y="90" as="targetPoint" />
            <mxPoint x="560" y="122.85714285714289" as="sourcePoint" />
          </mxGeometry>
        </mxCell>
        <mxCell id="Um8_nvh1hXhyoKsjVqpz-49" style="edgeStyle=orthogonalEdgeStyle;shape=connector;rounded=0;orthogonalLoop=1;jettySize=auto;html=1;exitX=0;exitY=0.5;exitDx=0;exitDy=0;exitPerimeter=0;strokeColor=default;align=center;verticalAlign=middle;fontFamily=Helvetica;fontSize=11;fontColor=default;labelBackgroundColor=default;endArrow=none;endFill=0;" edge="1" parent="1" source="Um8_nvh1hXhyoKsjVqpz-37">
          <mxGeometry relative="1" as="geometry">
            <mxPoint x="490" y="150.17391304347836" as="targetPoint" />
          </mxGeometry>
        </mxCell>
        <mxCell id="Um8_nvh1hXhyoKsjVqpz-37" value="" style="verticalLabelPosition=bottom;shadow=0;dashed=0;align=center;html=1;verticalAlign=top;shape=mxgraph.electrical.transistors.pmos;pointerEvents=1;" vertex="1" parent="1">
          <mxGeometry x="500" y="100" width="60" height="100" as="geometry" />
        </mxCell>
        <mxCell id="Um8_nvh1hXhyoKsjVqpz-39" style="edgeStyle=orthogonalEdgeStyle;shape=connector;rounded=0;orthogonalLoop=1;jettySize=auto;html=1;exitX=1;exitY=1;exitDx=0;exitDy=0;exitPerimeter=0;entryX=1;entryY=0;entryDx=0;entryDy=0;entryPerimeter=0;strokeColor=default;align=center;verticalAlign=middle;fontFamily=Helvetica;fontSize=11;fontColor=default;labelBackgroundColor=default;endArrow=none;endFill=0;" edge="1" parent="1" source="Um8_nvh1hXhyoKsjVqpz-37" target="Um8_nvh1hXhyoKsjVqpz-36">
          <mxGeometry relative="1" as="geometry" />
        </mxCell>
        <mxCell id="Um8_nvh1hXhyoKsjVqpz-43" style="edgeStyle=orthogonalEdgeStyle;shape=connector;rounded=0;orthogonalLoop=1;jettySize=auto;html=1;exitX=0;exitY=0.5;exitDx=0;exitDy=0;exitPerimeter=0;entryX=0.229;entryY=0.5;entryDx=0;entryDy=0;entryPerimeter=0;strokeColor=default;align=center;verticalAlign=middle;fontFamily=Helvetica;fontSize=11;fontColor=default;labelBackgroundColor=default;endArrow=none;endFill=0;" edge="1" parent="1" source="Um8_nvh1hXhyoKsjVqpz-36" target="Um8_nvh1hXhyoKsjVqpz-17">
          <mxGeometry relative="1" as="geometry">
            <Array as="points">
              <mxPoint x="490" y="550" />
              <mxPoint x="490" y="497" />
            </Array>
          </mxGeometry>
        </mxCell>
        <mxCell id="Um8_nvh1hXhyoKsjVqpz-50" value="" style="endArrow=none;html=1;rounded=0;strokeColor=default;align=center;verticalAlign=middle;fontFamily=Helvetica;fontSize=11;fontColor=default;labelBackgroundColor=default;edgeStyle=orthogonalEdgeStyle;" edge="1" parent="1">
          <mxGeometry width="50" height="50" relative="1" as="geometry">
            <mxPoint x="560" y="220" as="sourcePoint" />
            <mxPoint x="490" y="150" as="targetPoint" />
            <Array as="points">
              <mxPoint x="490" y="220" />
            </Array>
          </mxGeometry>
        </mxCell>
        <mxCell id="Um8_nvh1hXhyoKsjVqpz-51" value="" style="shape=waypoint;sketch=0;fillStyle=solid;size=6;pointerEvents=1;points=[];fillColor=none;resizable=0;rotatable=0;perimeter=centerPerimeter;snapToPoint=1;fontFamily=Helvetica;fontSize=11;fontColor=default;labelBackgroundColor=default;" vertex="1" parent="1">
          <mxGeometry x="50" y="300" width="20" height="20" as="geometry" />
        </mxCell>
        <mxCell id="Um8_nvh1hXhyoKsjVqpz-54" value="" style="edgeStyle=orthogonalEdgeStyle;shape=connector;rounded=0;orthogonalLoop=1;jettySize=auto;html=1;exitX=0;exitY=0.5;exitDx=0;exitDy=0;exitPerimeter=0;strokeColor=default;align=center;verticalAlign=middle;fontFamily=Helvetica;fontSize=11;fontColor=default;labelBackgroundColor=default;endArrow=none;endFill=0;" edge="1" parent="1" source="Um8_nvh1hXhyoKsjVqpz-12" target="Um8_nvh1hXhyoKsjVqpz-53">
          <mxGeometry relative="1" as="geometry">
            <mxPoint x="60" y="399.8333333333335" as="targetPoint" />
            <mxPoint x="110" y="370" as="sourcePoint" />
            <Array as="points" />
          </mxGeometry>
        </mxCell>
        <mxCell id="Um8_nvh1hXhyoKsjVqpz-53" value="" style="shape=waypoint;sketch=0;fillStyle=solid;size=6;pointerEvents=1;points=[];fillColor=none;resizable=0;rotatable=0;perimeter=centerPerimeter;snapToPoint=1;fontFamily=Helvetica;fontSize=11;fontColor=default;labelBackgroundColor=default;" vertex="1" parent="1">
          <mxGeometry x="50" y="360" width="20" height="20" as="geometry" />
        </mxCell>
        <mxCell id="Um8_nvh1hXhyoKsjVqpz-55" value="" style="edgeStyle=orthogonalEdgeStyle;shape=connector;rounded=0;orthogonalLoop=1;jettySize=auto;html=1;exitX=0;exitY=0.5;exitDx=0;exitDy=0;exitPerimeter=0;strokeColor=default;align=center;verticalAlign=middle;fontFamily=Helvetica;fontSize=11;fontColor=default;labelBackgroundColor=default;endArrow=none;endFill=0;" edge="1" parent="1" source="Um8_nvh1hXhyoKsjVqpz-1" target="Um8_nvh1hXhyoKsjVqpz-52">
          <mxGeometry relative="1" as="geometry">
            <mxPoint x="320" y="497.3333333333335" as="targetPoint" />
            <mxPoint x="120" y="497" as="sourcePoint" />
          </mxGeometry>
        </mxCell>
        <mxCell id="Um8_nvh1hXhyoKsjVqpz-52" value="" style="shape=waypoint;sketch=0;fillStyle=solid;size=6;pointerEvents=1;points=[];fillColor=none;resizable=0;rotatable=0;perimeter=centerPerimeter;snapToPoint=1;fontFamily=Helvetica;fontSize=11;fontColor=default;labelBackgroundColor=default;" vertex="1" parent="1">
          <mxGeometry x="160" y="487.14" width="20" height="20" as="geometry" />
        </mxCell>
        <mxCell id="Um8_nvh1hXhyoKsjVqpz-57" value="" style="edgeStyle=orthogonalEdgeStyle;shape=connector;rounded=0;orthogonalLoop=1;jettySize=auto;html=1;exitX=0;exitY=0.5;exitDx=0;exitDy=0;exitPerimeter=0;strokeColor=default;align=center;verticalAlign=middle;fontFamily=Helvetica;fontSize=11;fontColor=default;labelBackgroundColor=default;endArrow=none;endFill=0;" edge="1" parent="1" source="Um8_nvh1hXhyoKsjVqpz-27" target="Um8_nvh1hXhyoKsjVqpz-56">
          <mxGeometry relative="1" as="geometry">
            <mxPoint x="320" y="478" as="targetPoint" />
            <mxPoint x="320" y="530" as="sourcePoint" />
          </mxGeometry>
        </mxCell>
        <mxCell id="Um8_nvh1hXhyoKsjVqpz-56" value="" style="shape=waypoint;sketch=0;fillStyle=solid;size=6;pointerEvents=1;points=[];fillColor=none;resizable=0;rotatable=0;perimeter=centerPerimeter;snapToPoint=1;fontFamily=Helvetica;fontSize=11;fontColor=default;labelBackgroundColor=default;" vertex="1" parent="1">
          <mxGeometry x="310" y="487.14" width="20" height="20" as="geometry" />
        </mxCell>
        <mxCell id="Um8_nvh1hXhyoKsjVqpz-59" value="" style="endArrow=none;html=1;rounded=0;" edge="1" parent="1" source="Um8_nvh1hXhyoKsjVqpz-60" target="Um8_nvh1hXhyoKsjVqpz-58">
          <mxGeometry width="50" height="50" relative="1" as="geometry">
            <mxPoint x="40" y="609" as="sourcePoint" />
            <mxPoint x="1560" y="609" as="targetPoint" />
          </mxGeometry>
        </mxCell>
        <mxCell id="Um8_nvh1hXhyoKsjVqpz-58" value="" style="shape=waypoint;sketch=0;fillStyle=solid;size=6;pointerEvents=1;points=[];fillColor=none;resizable=0;rotatable=0;perimeter=centerPerimeter;snapToPoint=1;fontFamily=Helvetica;fontSize=11;fontColor=default;labelBackgroundColor=default;" vertex="1" parent="1">
          <mxGeometry x="310" y="600" width="20" height="20" as="geometry" />
        </mxCell>
        <mxCell id="Um8_nvh1hXhyoKsjVqpz-61" value="" style="endArrow=none;html=1;rounded=0;" edge="1" parent="1" target="Um8_nvh1hXhyoKsjVqpz-60">
          <mxGeometry width="50" height="50" relative="1" as="geometry">
            <mxPoint x="60" y="609.9999999999999" as="sourcePoint" />
            <mxPoint x="320" y="610" as="targetPoint" />
          </mxGeometry>
        </mxCell>
        <mxCell id="Um8_nvh1hXhyoKsjVqpz-60" value="" style="shape=waypoint;sketch=0;fillStyle=solid;size=6;pointerEvents=1;points=[];fillColor=none;resizable=0;rotatable=0;perimeter=centerPerimeter;snapToPoint=1;fontFamily=Helvetica;fontSize=11;fontColor=default;labelBackgroundColor=default;" vertex="1" parent="1">
          <mxGeometry x="230" y="600" width="20" height="20" as="geometry" />
        </mxCell>
        <mxCell id="Um8_nvh1hXhyoKsjVqpz-63" value="" style="endArrow=none;html=1;rounded=0;" edge="1" parent="1">
          <mxGeometry width="50" height="50" relative="1" as="geometry">
            <mxPoint x="60" y="610" as="sourcePoint" />
            <mxPoint x="60" y="609.9999999999999" as="targetPoint" />
          </mxGeometry>
        </mxCell>
        <mxCell id="Um8_nvh1hXhyoKsjVqpz-65" value="" style="edgeStyle=orthogonalEdgeStyle;shape=connector;rounded=0;orthogonalLoop=1;jettySize=auto;html=1;exitX=1;exitY=0.5;exitDx=0;exitDy=0;exitPerimeter=0;strokeColor=default;align=center;verticalAlign=middle;fontFamily=Helvetica;fontSize=11;fontColor=default;labelBackgroundColor=default;endArrow=none;endFill=0;" edge="1" parent="1" source="Um8_nvh1hXhyoKsjVqpz-18" target="Um8_nvh1hXhyoKsjVqpz-64">
          <mxGeometry relative="1" as="geometry">
            <mxPoint x="410" y="640" as="targetPoint" />
            <mxPoint x="410" y="580" as="sourcePoint" />
          </mxGeometry>
        </mxCell>
        <mxCell id="Um8_nvh1hXhyoKsjVqpz-64" value="" style="shape=waypoint;sketch=0;fillStyle=solid;size=6;pointerEvents=1;points=[];fillColor=none;resizable=0;rotatable=0;perimeter=centerPerimeter;snapToPoint=1;fontFamily=Helvetica;fontSize=11;fontColor=default;labelBackgroundColor=default;" vertex="1" parent="1">
          <mxGeometry x="400" y="600" width="20" height="20" as="geometry" />
        </mxCell>
        <mxCell id="Um8_nvh1hXhyoKsjVqpz-66" value="" style="shape=waypoint;sketch=0;fillStyle=solid;size=6;pointerEvents=1;points=[];fillColor=none;resizable=0;rotatable=0;perimeter=centerPerimeter;snapToPoint=1;fontFamily=Helvetica;fontSize=11;fontColor=default;labelBackgroundColor=default;" vertex="1" parent="1">
          <mxGeometry x="400" y="80" width="20" height="20" as="geometry" />
        </mxCell>
        <mxCell id="Um8_nvh1hXhyoKsjVqpz-67" value="" style="shape=waypoint;sketch=0;fillStyle=solid;size=6;pointerEvents=1;points=[];fillColor=none;resizable=0;rotatable=0;perimeter=centerPerimeter;snapToPoint=1;fontFamily=Helvetica;fontSize=11;fontColor=default;labelBackgroundColor=default;" vertex="1" parent="1">
          <mxGeometry x="230" y="80" width="20" height="20" as="geometry" />
        </mxCell>
        <mxCell id="Um8_nvh1hXhyoKsjVqpz-69" value="" style="endArrow=none;html=1;rounded=0;" edge="1" parent="1">
          <mxGeometry width="50" height="50" relative="1" as="geometry">
            <mxPoint x="60" y="90" as="sourcePoint" />
            <mxPoint x="60" y="89.99999999999994" as="targetPoint" />
          </mxGeometry>
        </mxCell>
        <mxCell id="Um8_nvh1hXhyoKsjVqpz-70" value="" style="shape=waypoint;sketch=0;fillStyle=solid;size=6;pointerEvents=1;points=[];fillColor=none;resizable=0;rotatable=0;perimeter=centerPerimeter;snapToPoint=1;fontFamily=Helvetica;fontSize=11;fontColor=default;labelBackgroundColor=default;" vertex="1" parent="1">
          <mxGeometry x="550" y="210" width="20" height="20" as="geometry" />
        </mxCell>
        <mxCell id="Um8_nvh1hXhyoKsjVqpz-84" style="edgeStyle=orthogonalEdgeStyle;shape=connector;rounded=0;orthogonalLoop=1;jettySize=auto;html=1;exitDx=0;exitDy=0;exitPerimeter=0;strokeColor=default;align=center;verticalAlign=middle;fontFamily=Helvetica;fontSize=11;fontColor=default;labelBackgroundColor=default;endArrow=none;endFill=0;" edge="1" parent="1" source="Um8_nvh1hXhyoKsjVqpz-83">
          <mxGeometry relative="1" as="geometry">
            <mxPoint x="659.6666666666667" y="90" as="targetPoint" />
          </mxGeometry>
        </mxCell>
        <mxCell id="Um8_nvh1hXhyoKsjVqpz-71" value="" style="verticalLabelPosition=bottom;shadow=0;dashed=0;align=center;html=1;verticalAlign=top;shape=mxgraph.electrical.transistors.pmos;pointerEvents=1;flipH=1;" vertex="1" parent="1">
          <mxGeometry x="660" y="100" width="60" height="100" as="geometry" />
        </mxCell>
        <mxCell id="Um8_nvh1hXhyoKsjVqpz-174" style="edgeStyle=orthogonalEdgeStyle;shape=connector;rounded=0;orthogonalLoop=1;jettySize=auto;html=1;strokeColor=default;align=center;verticalAlign=middle;fontFamily=Helvetica;fontSize=11;fontColor=default;labelBackgroundColor=default;endArrow=none;endFill=0;exitX=0;exitY=0.5;exitDx=0;exitDy=0;exitPerimeter=0;" edge="1" parent="1" source="mC9KeTFp0cYL_Ei6fU9d-18">
          <mxGeometry relative="1" as="geometry">
            <mxPoint x="560.0000000000002" y="280.0000000000001" as="targetPoint" />
          </mxGeometry>
        </mxCell>
        <mxCell id="Um8_nvh1hXhyoKsjVqpz-72" value="" style="verticalLabelPosition=bottom;shadow=0;dashed=0;align=center;html=1;verticalAlign=top;shape=mxgraph.electrical.transistors.pmos;pointerEvents=1;flipH=1;" vertex="1" parent="1">
          <mxGeometry x="660" y="230" width="60" height="100" as="geometry" />
        </mxCell>
        <mxCell id="Um8_nvh1hXhyoKsjVqpz-103" style="edgeStyle=orthogonalEdgeStyle;shape=connector;rounded=0;orthogonalLoop=1;jettySize=auto;html=1;exitX=0;exitY=0.5;exitDx=0;exitDy=0;exitPerimeter=0;strokeColor=default;align=center;verticalAlign=middle;fontFamily=Helvetica;fontSize=11;fontColor=default;labelBackgroundColor=default;endArrow=none;endFill=0;" edge="1" parent="1">
          <mxGeometry relative="1" as="geometry">
            <mxPoint x="730.0000000000002" y="419.8333333333335" as="targetPoint" />
            <mxPoint x="720" y="420" as="sourcePoint" />
          </mxGeometry>
        </mxCell>
        <mxCell id="Um8_nvh1hXhyoKsjVqpz-80" style="edgeStyle=orthogonalEdgeStyle;shape=connector;rounded=0;orthogonalLoop=1;jettySize=auto;html=1;exitX=1;exitY=1;exitDx=0;exitDy=0;exitPerimeter=0;strokeColor=default;align=center;verticalAlign=middle;fontFamily=Helvetica;fontSize=11;fontColor=default;labelBackgroundColor=default;endArrow=none;endFill=0;" edge="1" parent="1" source="Um8_nvh1hXhyoKsjVqpz-74">
          <mxGeometry relative="1" as="geometry">
            <mxPoint x="660" y="610" as="targetPoint" />
          </mxGeometry>
        </mxCell>
        <mxCell id="Um8_nvh1hXhyoKsjVqpz-74" value="" style="verticalLabelPosition=bottom;shadow=0;dashed=0;align=center;html=1;verticalAlign=top;shape=mxgraph.electrical.transistors.nmos;pointerEvents=1;fontFamily=Helvetica;fontSize=11;fontColor=default;labelBackgroundColor=default;flipH=0;" vertex="1" parent="1">
          <mxGeometry x="600" y="500" width="60" height="100" as="geometry" />
        </mxCell>
        <mxCell id="Um8_nvh1hXhyoKsjVqpz-77" style="edgeStyle=orthogonalEdgeStyle;shape=connector;rounded=0;orthogonalLoop=1;jettySize=auto;html=1;exitX=1;exitY=1;exitDx=0;exitDy=0;exitPerimeter=0;entryX=1;entryY=0;entryDx=0;entryDy=0;entryPerimeter=0;strokeColor=default;align=center;verticalAlign=middle;fontFamily=Helvetica;fontSize=11;fontColor=default;labelBackgroundColor=default;endArrow=none;endFill=0;" edge="1" parent="1" source="Um8_nvh1hXhyoKsjVqpz-71" target="Um8_nvh1hXhyoKsjVqpz-72">
          <mxGeometry relative="1" as="geometry" />
        </mxCell>
        <mxCell id="Um8_nvh1hXhyoKsjVqpz-78" style="edgeStyle=orthogonalEdgeStyle;shape=connector;rounded=0;orthogonalLoop=1;jettySize=auto;html=1;exitX=1;exitY=1;exitDx=0;exitDy=0;exitPerimeter=0;entryX=1;entryY=0;entryDx=0;entryDy=0;entryPerimeter=0;strokeColor=default;align=center;verticalAlign=middle;fontFamily=Helvetica;fontSize=11;fontColor=default;labelBackgroundColor=default;endArrow=none;endFill=0;" edge="1" parent="1" source="Um8_nvh1hXhyoKsjVqpz-72">
          <mxGeometry relative="1" as="geometry">
            <mxPoint x="660" y="372.8571428571429" as="targetPoint" />
          </mxGeometry>
        </mxCell>
        <mxCell id="Um8_nvh1hXhyoKsjVqpz-79" style="edgeStyle=orthogonalEdgeStyle;shape=connector;rounded=0;orthogonalLoop=1;jettySize=auto;html=1;exitDx=0;exitDy=0;exitPerimeter=0;entryX=1;entryY=0;entryDx=0;entryDy=0;entryPerimeter=0;strokeColor=default;align=center;verticalAlign=middle;fontFamily=Helvetica;fontSize=11;fontColor=default;labelBackgroundColor=default;endArrow=none;endFill=0;" edge="1" parent="1" source="Um8_nvh1hXhyoKsjVqpz-101">
          <mxGeometry relative="1" as="geometry">
            <mxPoint x="659.9999999999995" y="470.1399999999999" as="sourcePoint" />
            <mxPoint x="660" y="482.8571428571429" as="targetPoint" />
          </mxGeometry>
        </mxCell>
        <mxCell id="Um8_nvh1hXhyoKsjVqpz-82" value="" style="endArrow=none;html=1;rounded=0;" edge="1" parent="1" source="Um8_nvh1hXhyoKsjVqpz-58" target="Um8_nvh1hXhyoKsjVqpz-81">
          <mxGeometry width="50" height="50" relative="1" as="geometry">
            <mxPoint x="320" y="610" as="sourcePoint" />
            <mxPoint x="1560" y="609" as="targetPoint" />
          </mxGeometry>
        </mxCell>
        <mxCell id="Um8_nvh1hXhyoKsjVqpz-81" value="" style="shape=waypoint;sketch=0;fillStyle=solid;size=6;pointerEvents=1;points=[];fillColor=none;resizable=0;rotatable=0;perimeter=centerPerimeter;snapToPoint=1;fontFamily=Helvetica;fontSize=11;fontColor=default;labelBackgroundColor=default;" vertex="1" parent="1">
          <mxGeometry x="650" y="600" width="20" height="20" as="geometry" />
        </mxCell>
        <mxCell id="Um8_nvh1hXhyoKsjVqpz-85" value="" style="edgeStyle=orthogonalEdgeStyle;shape=connector;rounded=0;orthogonalLoop=1;jettySize=auto;html=1;exitX=1;exitY=0;exitDx=0;exitDy=0;exitPerimeter=0;strokeColor=default;align=center;verticalAlign=middle;fontFamily=Helvetica;fontSize=11;fontColor=default;labelBackgroundColor=default;endArrow=none;endFill=0;" edge="1" parent="1" source="Um8_nvh1hXhyoKsjVqpz-71" target="Um8_nvh1hXhyoKsjVqpz-83">
          <mxGeometry relative="1" as="geometry">
            <mxPoint x="659.6666666666667" y="90" as="targetPoint" />
            <mxPoint x="660" y="103" as="sourcePoint" />
          </mxGeometry>
        </mxCell>
        <mxCell id="Um8_nvh1hXhyoKsjVqpz-83" value="" style="shape=waypoint;sketch=0;fillStyle=solid;size=6;pointerEvents=1;points=[];fillColor=none;resizable=0;rotatable=0;perimeter=centerPerimeter;snapToPoint=1;fontFamily=Helvetica;fontSize=11;fontColor=default;labelBackgroundColor=default;" vertex="1" parent="1">
          <mxGeometry x="650" y="80" width="20" height="20" as="geometry" />
        </mxCell>
        <mxCell id="Um8_nvh1hXhyoKsjVqpz-86" style="edgeStyle=orthogonalEdgeStyle;shape=connector;rounded=0;orthogonalLoop=1;jettySize=auto;html=1;exitX=0;exitY=0.5;exitDx=0;exitDy=0;exitPerimeter=0;entryX=0;entryY=0.5;entryDx=0;entryDy=0;entryPerimeter=0;strokeColor=default;align=center;verticalAlign=middle;fontFamily=Helvetica;fontSize=11;fontColor=default;labelBackgroundColor=default;endArrow=none;endFill=0;" edge="1" parent="1" source="Um8_nvh1hXhyoKsjVqpz-72" target="mC9KeTFp0cYL_Ei6fU9d-18">
          <mxGeometry relative="1" as="geometry" />
        </mxCell>
        <mxCell id="Um8_nvh1hXhyoKsjVqpz-87" style="edgeStyle=orthogonalEdgeStyle;shape=connector;rounded=0;orthogonalLoop=1;jettySize=auto;html=1;exitX=0;exitY=0.5;exitDx=0;exitDy=0;exitPerimeter=0;entryX=0;entryY=0.5;entryDx=0;entryDy=0;entryPerimeter=0;strokeColor=default;align=center;verticalAlign=middle;fontFamily=Helvetica;fontSize=11;fontColor=default;labelBackgroundColor=default;endArrow=none;endFill=0;" edge="1" parent="1" source="Um8_nvh1hXhyoKsjVqpz-71" target="mC9KeTFp0cYL_Ei6fU9d-16">
          <mxGeometry relative="1" as="geometry" />
        </mxCell>
        <mxCell id="Um8_nvh1hXhyoKsjVqpz-88" style="edgeStyle=orthogonalEdgeStyle;shape=connector;rounded=0;orthogonalLoop=1;jettySize=auto;html=1;exitX=0;exitY=0.5;exitDx=0;exitDy=0;exitPerimeter=0;entryX=0.2;entryY=0.5;entryDx=0;entryDy=0;entryPerimeter=0;strokeColor=default;align=center;verticalAlign=middle;fontFamily=Helvetica;fontSize=11;fontColor=default;labelBackgroundColor=default;endArrow=none;endFill=0;" edge="1" parent="1" source="Um8_nvh1hXhyoKsjVqpz-74" target="Um8_nvh1hXhyoKsjVqpz-36">
          <mxGeometry relative="1" as="geometry" />
        </mxCell>
        <mxCell id="Um8_nvh1hXhyoKsjVqpz-89" style="edgeStyle=orthogonalEdgeStyle;shape=connector;rounded=0;orthogonalLoop=1;jettySize=auto;html=1;exitDx=0;exitDy=0;exitPerimeter=0;entryX=1;entryY=0;entryDx=0;entryDy=0;entryPerimeter=0;strokeColor=default;align=center;verticalAlign=middle;fontFamily=Helvetica;fontSize=11;fontColor=default;labelBackgroundColor=default;endArrow=none;endFill=0;" edge="1" parent="1" source="Um8_nvh1hXhyoKsjVqpz-119" target="Um8_nvh1hXhyoKsjVqpz-11">
          <mxGeometry relative="1" as="geometry" />
        </mxCell>
        <mxCell id="Um8_nvh1hXhyoKsjVqpz-91" style="edgeStyle=orthogonalEdgeStyle;shape=connector;rounded=0;orthogonalLoop=1;jettySize=auto;html=1;exitX=1;exitY=0;exitDx=0;exitDy=0;exitPerimeter=0;entryX=1;entryY=1;entryDx=0;entryDy=0;entryPerimeter=0;strokeColor=default;align=center;verticalAlign=middle;fontFamily=Helvetica;fontSize=11;fontColor=default;labelBackgroundColor=default;endArrow=none;endFill=0;" edge="1" parent="1" source="mC9KeTFp0cYL_Ei6fU9d-18" target="mC9KeTFp0cYL_Ei6fU9d-16">
          <mxGeometry relative="1" as="geometry" />
        </mxCell>
        <mxCell id="Um8_nvh1hXhyoKsjVqpz-95" value="" style="edgeStyle=orthogonalEdgeStyle;shape=connector;rounded=0;orthogonalLoop=1;jettySize=auto;html=1;exitX=1;exitY=0;exitDx=0;exitDy=0;exitPerimeter=0;strokeColor=default;align=center;verticalAlign=middle;fontFamily=Helvetica;fontSize=11;fontColor=default;labelBackgroundColor=default;endArrow=none;endFill=0;" edge="1" parent="1" source="mC9KeTFp0cYL_Ei6fU9d-16" target="Um8_nvh1hXhyoKsjVqpz-94">
          <mxGeometry relative="1" as="geometry">
            <mxPoint x="800" y="90" as="targetPoint" />
            <mxPoint x="800" y="103" as="sourcePoint" />
          </mxGeometry>
        </mxCell>
        <mxCell id="Um8_nvh1hXhyoKsjVqpz-94" value="" style="shape=waypoint;sketch=0;fillStyle=solid;size=6;pointerEvents=1;points=[];fillColor=none;resizable=0;rotatable=0;perimeter=centerPerimeter;snapToPoint=1;fontFamily=Helvetica;fontSize=11;fontColor=default;labelBackgroundColor=default;" vertex="1" parent="1">
          <mxGeometry x="790" y="80" width="20" height="20" as="geometry" />
        </mxCell>
        <mxCell id="Um8_nvh1hXhyoKsjVqpz-96" style="edgeStyle=orthogonalEdgeStyle;shape=connector;rounded=0;orthogonalLoop=1;jettySize=auto;html=1;exitDx=0;exitDy=0;exitPerimeter=0;entryX=1;entryY=1;entryDx=0;entryDy=0;entryPerimeter=0;strokeColor=default;align=center;verticalAlign=middle;fontFamily=Helvetica;fontSize=11;fontColor=default;labelBackgroundColor=default;endArrow=none;endFill=0;" edge="1" parent="1" source="Um8_nvh1hXhyoKsjVqpz-115" target="mC9KeTFp0cYL_Ei6fU9d-18">
          <mxGeometry relative="1" as="geometry" />
        </mxCell>
        <mxCell id="Um8_nvh1hXhyoKsjVqpz-97" value="" style="line;strokeWidth=1;html=1;fontFamily=Helvetica;fontSize=11;fontColor=default;labelBackgroundColor=default;" vertex="1" parent="1">
          <mxGeometry x="450" y="492" width="570" height="10" as="geometry" />
        </mxCell>
        <mxCell id="Um8_nvh1hXhyoKsjVqpz-98" value="" style="endArrow=none;html=1;rounded=0;strokeColor=default;align=center;verticalAlign=middle;fontFamily=Helvetica;fontSize=11;fontColor=default;labelBackgroundColor=default;edgeStyle=orthogonalEdgeStyle;" edge="1" parent="1" source="Um8_nvh1hXhyoKsjVqpz-99">
          <mxGeometry width="50" height="50" relative="1" as="geometry">
            <mxPoint x="660" y="330" as="sourcePoint" />
            <mxPoint x="719.5" y="149.5" as="targetPoint" />
            <Array as="points" />
          </mxGeometry>
        </mxCell>
        <mxCell id="Um8_nvh1hXhyoKsjVqpz-110" style="edgeStyle=orthogonalEdgeStyle;shape=connector;rounded=0;orthogonalLoop=1;jettySize=auto;html=1;strokeColor=default;align=center;verticalAlign=middle;fontFamily=Helvetica;fontSize=11;fontColor=default;labelBackgroundColor=default;endArrow=none;endFill=0;" edge="1" parent="1" source="Um8_nvh1hXhyoKsjVqpz-99">
          <mxGeometry relative="1" as="geometry">
            <mxPoint x="720" y="480" as="targetPoint" />
          </mxGeometry>
        </mxCell>
        <mxCell id="Um8_nvh1hXhyoKsjVqpz-99" value="" style="shape=waypoint;sketch=0;fillStyle=solid;size=6;pointerEvents=1;points=[];fillColor=none;resizable=0;rotatable=0;perimeter=centerPerimeter;snapToPoint=1;fontFamily=Helvetica;fontSize=11;fontColor=default;labelBackgroundColor=default;" vertex="1" parent="1">
          <mxGeometry x="710" y="140" width="20" height="20" as="geometry" />
        </mxCell>
        <mxCell id="Um8_nvh1hXhyoKsjVqpz-102" value="" style="endArrow=none;html=1;rounded=0;strokeColor=default;align=center;verticalAlign=middle;fontFamily=Helvetica;fontSize=11;fontColor=default;labelBackgroundColor=default;edgeStyle=orthogonalEdgeStyle;" edge="1" parent="1">
          <mxGeometry width="50" height="50" relative="1" as="geometry">
            <mxPoint x="730" y="420" as="sourcePoint" />
            <mxPoint x="1200" y="335" as="targetPoint" />
            <Array as="points">
              <mxPoint x="750" y="420" />
              <mxPoint x="750" y="335" />
              <mxPoint x="1200" y="335" />
            </Array>
          </mxGeometry>
        </mxCell>
        <mxCell id="Um8_nvh1hXhyoKsjVqpz-107" value="" style="edgeStyle=orthogonalEdgeStyle;shape=connector;rounded=0;orthogonalLoop=1;jettySize=auto;html=1;exitX=1;exitY=1;exitDx=0;exitDy=0;exitPerimeter=0;entryDx=0;entryDy=0;entryPerimeter=0;strokeColor=default;align=center;verticalAlign=middle;fontFamily=Helvetica;fontSize=11;fontColor=default;labelBackgroundColor=default;endArrow=none;endFill=0;" edge="1" parent="1">
          <mxGeometry relative="1" as="geometry">
            <mxPoint x="660" y="467.1428571428571" as="sourcePoint" />
            <mxPoint x="659.9999999999995" y="490.1399999999999" as="targetPoint" />
          </mxGeometry>
        </mxCell>
        <mxCell id="Um8_nvh1hXhyoKsjVqpz-108" value="" style="edgeStyle=orthogonalEdgeStyle;shape=connector;rounded=0;orthogonalLoop=1;jettySize=auto;html=1;exitDx=0;exitDy=0;exitPerimeter=0;entryDx=0;entryDy=0;entryPerimeter=0;strokeColor=default;align=center;verticalAlign=middle;fontFamily=Helvetica;fontSize=11;fontColor=default;labelBackgroundColor=default;endArrow=none;endFill=0;" edge="1" parent="1" target="Um8_nvh1hXhyoKsjVqpz-101">
          <mxGeometry relative="1" as="geometry">
            <mxPoint x="659.9999999999995" y="470.1399999999999" as="sourcePoint" />
            <mxPoint x="660" y="483" as="targetPoint" />
          </mxGeometry>
        </mxCell>
        <mxCell id="Um8_nvh1hXhyoKsjVqpz-101" value="" style="shape=waypoint;sketch=0;fillStyle=solid;size=6;pointerEvents=1;points=[];fillColor=none;resizable=0;rotatable=0;perimeter=centerPerimeter;snapToPoint=1;fontFamily=Helvetica;fontSize=11;fontColor=default;labelBackgroundColor=default;" vertex="1" parent="1">
          <mxGeometry x="650" y="470.14" width="20" height="20" as="geometry" />
        </mxCell>
        <mxCell id="Um8_nvh1hXhyoKsjVqpz-109" style="edgeStyle=orthogonalEdgeStyle;shape=connector;rounded=0;orthogonalLoop=1;jettySize=auto;html=1;exitX=1;exitY=0;exitDx=0;exitDy=0;exitPerimeter=0;entryX=0.519;entryY=0.79;entryDx=0;entryDy=0;entryPerimeter=0;strokeColor=default;align=center;verticalAlign=middle;fontFamily=Helvetica;fontSize=11;fontColor=default;labelBackgroundColor=default;endArrow=none;endFill=0;" edge="1" parent="1" source="Um8_nvh1hXhyoKsjVqpz-74" target="Um8_nvh1hXhyoKsjVqpz-101">
          <mxGeometry relative="1" as="geometry" />
        </mxCell>
        <mxCell id="Um8_nvh1hXhyoKsjVqpz-112" value="" style="endArrow=none;html=1;rounded=0;strokeColor=default;align=center;verticalAlign=middle;fontFamily=Helvetica;fontSize=11;fontColor=default;labelBackgroundColor=default;edgeStyle=orthogonalEdgeStyle;" edge="1" parent="1">
          <mxGeometry width="50" height="50" relative="1" as="geometry">
            <mxPoint x="659.97" y="479.8" as="sourcePoint" />
            <mxPoint x="720" y="480" as="targetPoint" />
            <Array as="points">
              <mxPoint x="709.97" y="479.8" />
            </Array>
          </mxGeometry>
        </mxCell>
        <mxCell id="Um8_nvh1hXhyoKsjVqpz-116" value="" style="edgeStyle=orthogonalEdgeStyle;shape=connector;rounded=0;orthogonalLoop=1;jettySize=auto;html=1;exitX=1;exitY=0;exitDx=0;exitDy=0;exitPerimeter=0;entryDx=0;entryDy=0;entryPerimeter=0;strokeColor=default;align=center;verticalAlign=middle;fontFamily=Helvetica;fontSize=11;fontColor=default;labelBackgroundColor=default;endArrow=none;endFill=0;" edge="1" parent="1" source="Um8_nvh1hXhyoKsjVqpz-10" target="Um8_nvh1hXhyoKsjVqpz-115">
          <mxGeometry relative="1" as="geometry">
            <mxPoint x="800" y="370" as="sourcePoint" />
            <mxPoint x="800" y="327" as="targetPoint" />
          </mxGeometry>
        </mxCell>
        <mxCell id="Um8_nvh1hXhyoKsjVqpz-115" value="" style="shape=waypoint;sketch=0;fillStyle=solid;size=6;pointerEvents=1;points=[];fillColor=none;resizable=0;rotatable=0;perimeter=centerPerimeter;snapToPoint=1;fontFamily=Helvetica;fontSize=11;fontColor=default;labelBackgroundColor=default;" vertex="1" parent="1">
          <mxGeometry x="790" y="350" width="20" height="20" as="geometry" />
        </mxCell>
        <mxCell id="Um8_nvh1hXhyoKsjVqpz-117" value="" style="endArrow=none;html=1;rounded=0;strokeColor=default;align=center;verticalAlign=middle;fontFamily=Helvetica;fontSize=11;fontColor=default;labelBackgroundColor=default;edgeStyle=orthogonalEdgeStyle;" edge="1" parent="1" source="Um8_nvh1hXhyoKsjVqpz-155">
          <mxGeometry width="50" height="50" relative="1" as="geometry">
            <mxPoint x="800" y="470" as="sourcePoint" />
            <mxPoint x="750" y="420" as="targetPoint" />
            <Array as="points" />
          </mxGeometry>
        </mxCell>
        <mxCell id="Um8_nvh1hXhyoKsjVqpz-120" value="" style="edgeStyle=orthogonalEdgeStyle;shape=connector;rounded=0;orthogonalLoop=1;jettySize=auto;html=1;exitX=1;exitY=1;exitDx=0;exitDy=0;exitPerimeter=0;entryDx=0;entryDy=0;entryPerimeter=0;strokeColor=default;align=center;verticalAlign=middle;fontFamily=Helvetica;fontSize=11;fontColor=default;labelBackgroundColor=default;endArrow=none;endFill=0;" edge="1" parent="1" source="Um8_nvh1hXhyoKsjVqpz-10" target="Um8_nvh1hXhyoKsjVqpz-119">
          <mxGeometry relative="1" as="geometry">
            <mxPoint x="800" y="464" as="sourcePoint" />
            <mxPoint x="800" y="503" as="targetPoint" />
          </mxGeometry>
        </mxCell>
        <mxCell id="Um8_nvh1hXhyoKsjVqpz-119" value="" style="shape=waypoint;sketch=0;fillStyle=solid;size=6;pointerEvents=1;points=[];fillColor=none;resizable=0;rotatable=0;perimeter=centerPerimeter;snapToPoint=1;fontFamily=Helvetica;fontSize=11;fontColor=default;labelBackgroundColor=default;" vertex="1" parent="1">
          <mxGeometry x="790" y="470" width="20" height="20" as="geometry" />
        </mxCell>
        <mxCell id="Um8_nvh1hXhyoKsjVqpz-137" style="edgeStyle=orthogonalEdgeStyle;shape=connector;rounded=0;orthogonalLoop=1;jettySize=auto;html=1;exitX=1;exitY=0;exitDx=0;exitDy=0;exitPerimeter=0;strokeColor=default;align=center;verticalAlign=middle;fontFamily=Helvetica;fontSize=11;fontColor=default;labelBackgroundColor=default;endArrow=none;endFill=0;" edge="1" parent="1" source="Um8_nvh1hXhyoKsjVqpz-130">
          <mxGeometry relative="1" as="geometry">
            <mxPoint x="970" y="90" as="targetPoint" />
          </mxGeometry>
        </mxCell>
        <mxCell id="Um8_nvh1hXhyoKsjVqpz-142" style="edgeStyle=orthogonalEdgeStyle;shape=connector;rounded=0;orthogonalLoop=1;jettySize=auto;html=1;exitX=0;exitY=0.5;exitDx=0;exitDy=0;exitPerimeter=0;strokeColor=default;align=center;verticalAlign=middle;fontFamily=Helvetica;fontSize=11;fontColor=default;labelBackgroundColor=default;endArrow=none;endFill=0;" edge="1" parent="1" source="Um8_nvh1hXhyoKsjVqpz-130">
          <mxGeometry relative="1" as="geometry">
            <mxPoint x="740" y="149.90697674418607" as="targetPoint" />
          </mxGeometry>
        </mxCell>
        <mxCell id="Um8_nvh1hXhyoKsjVqpz-130" value="" style="verticalLabelPosition=bottom;shadow=0;dashed=0;align=center;html=1;verticalAlign=top;shape=mxgraph.electrical.transistors.pmos;pointerEvents=1;" vertex="1" parent="1">
          <mxGeometry x="910" y="100" width="60" height="100" as="geometry" />
        </mxCell>
        <mxCell id="Um8_nvh1hXhyoKsjVqpz-131" value="" style="verticalLabelPosition=bottom;shadow=0;dashed=0;align=center;html=1;verticalAlign=top;shape=mxgraph.electrical.transistors.pmos;pointerEvents=1;" vertex="1" parent="1">
          <mxGeometry x="910" y="230" width="60" height="100" as="geometry" />
        </mxCell>
        <mxCell id="Um8_nvh1hXhyoKsjVqpz-133" style="edgeStyle=orthogonalEdgeStyle;shape=connector;rounded=0;orthogonalLoop=1;jettySize=auto;html=1;exitX=0;exitY=0.5;exitDx=0;exitDy=0;exitPerimeter=0;strokeColor=default;align=center;verticalAlign=middle;fontFamily=Helvetica;fontSize=11;fontColor=default;labelBackgroundColor=default;endArrow=none;endFill=0;" edge="1" parent="1" source="Um8_nvh1hXhyoKsjVqpz-132">
          <mxGeometry relative="1" as="geometry">
            <mxPoint x="900" y="550" as="targetPoint" />
          </mxGeometry>
        </mxCell>
        <mxCell id="Um8_nvh1hXhyoKsjVqpz-144" style="edgeStyle=orthogonalEdgeStyle;shape=connector;rounded=0;orthogonalLoop=1;jettySize=auto;html=1;exitX=1;exitY=1;exitDx=0;exitDy=0;exitPerimeter=0;strokeColor=default;align=center;verticalAlign=middle;fontFamily=Helvetica;fontSize=11;fontColor=default;labelBackgroundColor=default;endArrow=none;endFill=0;" edge="1" parent="1" source="Um8_nvh1hXhyoKsjVqpz-132">
          <mxGeometry relative="1" as="geometry">
            <mxPoint x="970" y="610" as="targetPoint" />
          </mxGeometry>
        </mxCell>
        <mxCell id="Um8_nvh1hXhyoKsjVqpz-132" value="" style="verticalLabelPosition=bottom;shadow=0;dashed=0;align=center;html=1;verticalAlign=top;shape=mxgraph.electrical.transistors.nmos;pointerEvents=1;fontFamily=Helvetica;fontSize=11;fontColor=default;labelBackgroundColor=default;flipH=0;" vertex="1" parent="1">
          <mxGeometry x="910" y="500" width="60" height="100" as="geometry" />
        </mxCell>
        <mxCell id="Um8_nvh1hXhyoKsjVqpz-135" style="edgeStyle=orthogonalEdgeStyle;shape=connector;rounded=0;orthogonalLoop=1;jettySize=auto;html=1;exitDx=0;exitDy=0;exitPerimeter=0;entryX=1;entryY=0;entryDx=0;entryDy=0;entryPerimeter=0;strokeColor=default;align=center;verticalAlign=middle;fontFamily=Helvetica;fontSize=11;fontColor=default;labelBackgroundColor=default;endArrow=none;endFill=0;" edge="1" parent="1" source="Um8_nvh1hXhyoKsjVqpz-153" target="Um8_nvh1hXhyoKsjVqpz-132">
          <mxGeometry relative="1" as="geometry" />
        </mxCell>
        <mxCell id="Um8_nvh1hXhyoKsjVqpz-136" style="edgeStyle=orthogonalEdgeStyle;shape=connector;rounded=0;orthogonalLoop=1;jettySize=auto;html=1;exitX=1;exitY=1;exitDx=0;exitDy=0;exitPerimeter=0;entryX=1;entryY=0;entryDx=0;entryDy=0;entryPerimeter=0;strokeColor=default;align=center;verticalAlign=middle;fontFamily=Helvetica;fontSize=11;fontColor=default;labelBackgroundColor=default;endArrow=none;endFill=0;" edge="1" parent="1" source="Um8_nvh1hXhyoKsjVqpz-130" target="Um8_nvh1hXhyoKsjVqpz-131">
          <mxGeometry relative="1" as="geometry" />
        </mxCell>
        <mxCell id="Um8_nvh1hXhyoKsjVqpz-138" value="" style="shape=waypoint;sketch=0;fillStyle=solid;size=6;pointerEvents=1;points=[];fillColor=none;resizable=0;rotatable=0;perimeter=centerPerimeter;snapToPoint=1;fontFamily=Helvetica;fontSize=11;fontColor=default;labelBackgroundColor=default;" vertex="1" parent="1">
          <mxGeometry x="960" y="80" width="20" height="20" as="geometry" />
        </mxCell>
        <mxCell id="Um8_nvh1hXhyoKsjVqpz-139" value="" style="shape=waypoint;sketch=0;fillStyle=solid;size=6;pointerEvents=1;points=[];fillColor=none;resizable=0;rotatable=0;perimeter=centerPerimeter;snapToPoint=1;fontFamily=Helvetica;fontSize=11;fontColor=default;labelBackgroundColor=default;" vertex="1" parent="1">
          <mxGeometry x="480" y="487.14" width="20" height="20" as="geometry" />
        </mxCell>
        <mxCell id="Um8_nvh1hXhyoKsjVqpz-143" style="edgeStyle=orthogonalEdgeStyle;shape=connector;rounded=0;orthogonalLoop=1;jettySize=auto;html=1;exitX=0;exitY=0.5;exitDx=0;exitDy=0;exitPerimeter=0;entryX=0.527;entryY=0.502;entryDx=0;entryDy=0;entryPerimeter=0;strokeColor=default;align=center;verticalAlign=middle;fontFamily=Helvetica;fontSize=11;fontColor=default;labelBackgroundColor=default;endArrow=none;endFill=0;" edge="1" parent="1" source="Um8_nvh1hXhyoKsjVqpz-131" target="mC9KeTFp0cYL_Ei6fU9d-18">
          <mxGeometry relative="1" as="geometry" />
        </mxCell>
        <mxCell id="Um8_nvh1hXhyoKsjVqpz-146" value="" style="edgeStyle=orthogonalEdgeStyle;shape=connector;rounded=0;orthogonalLoop=1;jettySize=auto;html=1;exitX=1;exitY=1;exitDx=0;exitDy=0;exitPerimeter=0;strokeColor=default;align=center;verticalAlign=middle;fontFamily=Helvetica;fontSize=11;fontColor=default;labelBackgroundColor=default;endArrow=none;endFill=0;" edge="1" parent="1" source="Um8_nvh1hXhyoKsjVqpz-11" target="Um8_nvh1hXhyoKsjVqpz-145">
          <mxGeometry relative="1" as="geometry">
            <mxPoint x="800" y="610" as="targetPoint" />
            <mxPoint x="800" y="597" as="sourcePoint" />
          </mxGeometry>
        </mxCell>
        <mxCell id="Um8_nvh1hXhyoKsjVqpz-145" value="" style="shape=waypoint;sketch=0;fillStyle=solid;size=6;pointerEvents=1;points=[];fillColor=none;resizable=0;rotatable=0;perimeter=centerPerimeter;snapToPoint=1;fontFamily=Helvetica;fontSize=11;fontColor=default;labelBackgroundColor=default;" vertex="1" parent="1">
          <mxGeometry x="790" y="600" width="20" height="20" as="geometry" />
        </mxCell>
        <mxCell id="Um8_nvh1hXhyoKsjVqpz-148" value="" style="endArrow=none;html=1;rounded=0;" edge="1" parent="1" source="Um8_nvh1hXhyoKsjVqpz-81" target="Um8_nvh1hXhyoKsjVqpz-147">
          <mxGeometry width="50" height="50" relative="1" as="geometry">
            <mxPoint x="660" y="610" as="sourcePoint" />
            <mxPoint x="1560" y="609" as="targetPoint" />
          </mxGeometry>
        </mxCell>
        <mxCell id="Um8_nvh1hXhyoKsjVqpz-147" value="" style="shape=waypoint;sketch=0;fillStyle=solid;size=6;pointerEvents=1;points=[];fillColor=none;resizable=0;rotatable=0;perimeter=centerPerimeter;snapToPoint=1;fontFamily=Helvetica;fontSize=11;fontColor=default;labelBackgroundColor=default;" vertex="1" parent="1">
          <mxGeometry x="960" y="600" width="20" height="20" as="geometry" />
        </mxCell>
        <mxCell id="Um8_nvh1hXhyoKsjVqpz-151" value="" style="endArrow=none;html=1;rounded=0;strokeColor=default;align=center;verticalAlign=middle;fontFamily=Helvetica;fontSize=11;fontColor=default;labelBackgroundColor=default;edgeStyle=orthogonalEdgeStyle;" edge="1" parent="1">
          <mxGeometry width="50" height="50" relative="1" as="geometry">
            <mxPoint x="900" y="480" as="sourcePoint" />
            <mxPoint x="970" y="480" as="targetPoint" />
          </mxGeometry>
        </mxCell>
        <mxCell id="Um8_nvh1hXhyoKsjVqpz-152" value="" style="shape=waypoint;sketch=0;fillStyle=solid;size=6;pointerEvents=1;points=[];fillColor=none;resizable=0;rotatable=0;perimeter=centerPerimeter;snapToPoint=1;fontFamily=Helvetica;fontSize=11;fontColor=default;labelBackgroundColor=default;" vertex="1" parent="1">
          <mxGeometry x="890" y="470" width="20" height="20" as="geometry" />
        </mxCell>
        <mxCell id="Um8_nvh1hXhyoKsjVqpz-154" value="" style="edgeStyle=orthogonalEdgeStyle;shape=connector;rounded=0;orthogonalLoop=1;jettySize=auto;html=1;exitX=1;exitY=1;exitDx=0;exitDy=0;exitPerimeter=0;entryDx=0;entryDy=0;entryPerimeter=0;strokeColor=default;align=center;verticalAlign=middle;fontFamily=Helvetica;fontSize=11;fontColor=default;labelBackgroundColor=default;endArrow=none;endFill=0;" edge="1" parent="1" source="Um8_nvh1hXhyoKsjVqpz-131" target="Um8_nvh1hXhyoKsjVqpz-153">
          <mxGeometry relative="1" as="geometry">
            <mxPoint x="970" y="327" as="sourcePoint" />
            <mxPoint x="970" y="503" as="targetPoint" />
          </mxGeometry>
        </mxCell>
        <mxCell id="Um8_nvh1hXhyoKsjVqpz-153" value="" style="shape=waypoint;sketch=0;fillStyle=solid;size=6;pointerEvents=1;points=[];fillColor=none;resizable=0;rotatable=0;perimeter=centerPerimeter;snapToPoint=1;fontFamily=Helvetica;fontSize=11;fontColor=default;labelBackgroundColor=default;" vertex="1" parent="1">
          <mxGeometry x="960" y="470.14" width="20" height="20" as="geometry" />
        </mxCell>
        <mxCell id="Um8_nvh1hXhyoKsjVqpz-156" value="" style="endArrow=none;html=1;rounded=0;strokeColor=default;align=center;verticalAlign=middle;fontFamily=Helvetica;fontSize=11;fontColor=default;labelBackgroundColor=default;edgeStyle=orthogonalEdgeStyle;" edge="1" parent="1" target="Um8_nvh1hXhyoKsjVqpz-155">
          <mxGeometry width="50" height="50" relative="1" as="geometry">
            <mxPoint x="800" y="470" as="sourcePoint" />
            <mxPoint x="750" y="407" as="targetPoint" />
            <Array as="points">
              <mxPoint x="800" y="480" />
              <mxPoint x="750" y="480" />
            </Array>
          </mxGeometry>
        </mxCell>
        <mxCell id="Um8_nvh1hXhyoKsjVqpz-155" value="" style="shape=waypoint;sketch=0;fillStyle=solid;size=6;pointerEvents=1;points=[];fillColor=none;resizable=0;rotatable=0;perimeter=centerPerimeter;snapToPoint=1;fontFamily=Helvetica;fontSize=11;fontColor=default;labelBackgroundColor=default;" vertex="1" parent="1">
          <mxGeometry x="740" y="410" width="20" height="20" as="geometry" />
        </mxCell>
        <mxCell id="Um8_nvh1hXhyoKsjVqpz-165" style="edgeStyle=orthogonalEdgeStyle;shape=connector;rounded=0;orthogonalLoop=1;jettySize=auto;html=1;exitX=1;exitY=0;exitDx=0;exitDy=0;exitPerimeter=0;strokeColor=default;align=center;verticalAlign=middle;fontFamily=Helvetica;fontSize=11;fontColor=default;labelBackgroundColor=default;endArrow=none;endFill=0;" edge="1" parent="1" source="Um8_nvh1hXhyoKsjVqpz-157">
          <mxGeometry relative="1" as="geometry">
            <mxPoint x="1100" y="90" as="targetPoint" />
          </mxGeometry>
        </mxCell>
        <mxCell id="Um8_nvh1hXhyoKsjVqpz-173" style="edgeStyle=orthogonalEdgeStyle;shape=connector;rounded=0;orthogonalLoop=1;jettySize=auto;html=1;strokeColor=default;align=center;verticalAlign=middle;fontFamily=Helvetica;fontSize=11;fontColor=default;labelBackgroundColor=default;endArrow=none;endFill=0;exitX=0.6;exitY=0.733;exitDx=0;exitDy=0;exitPerimeter=0;" edge="1" parent="1" source="Um8_nvh1hXhyoKsjVqpz-99">
          <mxGeometry relative="1" as="geometry">
            <mxPoint x="1200" y="150" as="targetPoint" />
          </mxGeometry>
        </mxCell>
        <mxCell id="Um8_nvh1hXhyoKsjVqpz-157" value="" style="verticalLabelPosition=bottom;shadow=0;dashed=0;align=center;html=1;verticalAlign=top;shape=mxgraph.electrical.transistors.pmos;pointerEvents=1;" vertex="1" parent="1">
          <mxGeometry x="1040" y="100" width="60" height="100" as="geometry" />
        </mxCell>
        <mxCell id="Um8_nvh1hXhyoKsjVqpz-167" style="edgeStyle=orthogonalEdgeStyle;shape=connector;rounded=0;orthogonalLoop=1;jettySize=auto;html=1;exitX=0;exitY=0.5;exitDx=0;exitDy=0;exitPerimeter=0;strokeColor=default;align=center;verticalAlign=middle;fontFamily=Helvetica;fontSize=11;fontColor=default;labelBackgroundColor=default;endArrow=none;endFill=0;" edge="1" parent="1" source="Um8_nvh1hXhyoKsjVqpz-158">
          <mxGeometry relative="1" as="geometry">
            <mxPoint x="879.9999999999995" y="279.9999999999998" as="targetPoint" />
          </mxGeometry>
        </mxCell>
        <mxCell id="Um8_nvh1hXhyoKsjVqpz-178" style="edgeStyle=orthogonalEdgeStyle;shape=connector;rounded=0;orthogonalLoop=1;jettySize=auto;html=1;exitX=0;exitY=0.5;exitDx=0;exitDy=0;exitPerimeter=0;strokeColor=default;align=center;verticalAlign=middle;fontFamily=Helvetica;fontSize=11;fontColor=default;labelBackgroundColor=default;endArrow=none;endFill=0;" edge="1" parent="1" source="Um8_nvh1hXhyoKsjVqpz-158">
          <mxGeometry relative="1" as="geometry">
            <mxPoint x="1200" y="279.83333333333337" as="targetPoint" />
            <Array as="points">
              <mxPoint x="1100" y="280" />
              <mxPoint x="1100" y="280" />
            </Array>
          </mxGeometry>
        </mxCell>
        <mxCell id="Um8_nvh1hXhyoKsjVqpz-158" value="" style="verticalLabelPosition=bottom;shadow=0;dashed=0;align=center;html=1;verticalAlign=top;shape=mxgraph.electrical.transistors.pmos;pointerEvents=1;" vertex="1" parent="1">
          <mxGeometry x="1040" y="230" width="60" height="100" as="geometry" />
        </mxCell>
        <mxCell id="Um8_nvh1hXhyoKsjVqpz-169" style="edgeStyle=orthogonalEdgeStyle;shape=connector;rounded=0;orthogonalLoop=1;jettySize=auto;html=1;exitX=0;exitY=0.5;exitDx=0;exitDy=0;exitPerimeter=0;strokeColor=default;align=center;verticalAlign=middle;fontFamily=Helvetica;fontSize=11;fontColor=default;labelBackgroundColor=default;endArrow=none;endFill=0;" edge="1" parent="1" source="Um8_nvh1hXhyoKsjVqpz-159">
          <mxGeometry relative="1" as="geometry">
            <mxPoint x="1100" y="350" as="targetPoint" />
            <Array as="points">
              <mxPoint x="1020" y="420" />
              <mxPoint x="1020" y="360" />
              <mxPoint x="1100" y="360" />
            </Array>
          </mxGeometry>
        </mxCell>
        <mxCell id="Um8_nvh1hXhyoKsjVqpz-159" value="" style="verticalLabelPosition=bottom;shadow=0;dashed=0;align=center;html=1;verticalAlign=top;shape=mxgraph.electrical.transistors.nmos;pointerEvents=1;fontFamily=Helvetica;fontSize=11;fontColor=default;labelBackgroundColor=default;flipH=0;" vertex="1" parent="1">
          <mxGeometry x="1040" y="370" width="60" height="100" as="geometry" />
        </mxCell>
        <mxCell id="Um8_nvh1hXhyoKsjVqpz-161" style="edgeStyle=orthogonalEdgeStyle;shape=connector;rounded=0;orthogonalLoop=1;jettySize=auto;html=1;exitX=1;exitY=1;exitDx=0;exitDy=0;exitPerimeter=0;strokeColor=default;align=center;verticalAlign=middle;fontFamily=Helvetica;fontSize=11;fontColor=default;labelBackgroundColor=default;endArrow=none;endFill=0;" edge="1" parent="1" source="Um8_nvh1hXhyoKsjVqpz-160">
          <mxGeometry relative="1" as="geometry">
            <mxPoint x="1100" y="610" as="targetPoint" />
          </mxGeometry>
        </mxCell>
        <mxCell id="Um8_nvh1hXhyoKsjVqpz-160" value="" style="verticalLabelPosition=bottom;shadow=0;dashed=0;align=center;html=1;verticalAlign=top;shape=mxgraph.electrical.transistors.nmos;pointerEvents=1;fontFamily=Helvetica;fontSize=11;fontColor=default;labelBackgroundColor=default;flipH=0;" vertex="1" parent="1">
          <mxGeometry x="1040" y="500" width="60" height="100" as="geometry" />
        </mxCell>
        <mxCell id="Um8_nvh1hXhyoKsjVqpz-162" style="edgeStyle=orthogonalEdgeStyle;shape=connector;rounded=0;orthogonalLoop=1;jettySize=auto;html=1;exitX=1;exitY=0;exitDx=0;exitDy=0;exitPerimeter=0;entryX=1;entryY=1;entryDx=0;entryDy=0;entryPerimeter=0;strokeColor=default;align=center;verticalAlign=middle;fontFamily=Helvetica;fontSize=11;fontColor=default;labelBackgroundColor=default;endArrow=none;endFill=0;" edge="1" parent="1" source="Um8_nvh1hXhyoKsjVqpz-160" target="Um8_nvh1hXhyoKsjVqpz-159">
          <mxGeometry relative="1" as="geometry" />
        </mxCell>
        <mxCell id="Um8_nvh1hXhyoKsjVqpz-163" style="edgeStyle=orthogonalEdgeStyle;shape=connector;rounded=0;orthogonalLoop=1;jettySize=auto;html=1;exitDx=0;exitDy=0;exitPerimeter=0;entryX=1;entryY=1;entryDx=0;entryDy=0;entryPerimeter=0;strokeColor=default;align=center;verticalAlign=middle;fontFamily=Helvetica;fontSize=11;fontColor=default;labelBackgroundColor=default;endArrow=none;endFill=0;" edge="1" parent="1" source="Um8_nvh1hXhyoKsjVqpz-170" target="Um8_nvh1hXhyoKsjVqpz-158">
          <mxGeometry relative="1" as="geometry" />
        </mxCell>
        <mxCell id="Um8_nvh1hXhyoKsjVqpz-164" style="edgeStyle=orthogonalEdgeStyle;shape=connector;rounded=0;orthogonalLoop=1;jettySize=auto;html=1;exitX=1;exitY=0;exitDx=0;exitDy=0;exitPerimeter=0;entryX=1;entryY=1;entryDx=0;entryDy=0;entryPerimeter=0;strokeColor=default;align=center;verticalAlign=middle;fontFamily=Helvetica;fontSize=11;fontColor=default;labelBackgroundColor=default;endArrow=none;endFill=0;" edge="1" parent="1" source="Um8_nvh1hXhyoKsjVqpz-158" target="Um8_nvh1hXhyoKsjVqpz-157">
          <mxGeometry relative="1" as="geometry" />
        </mxCell>
        <mxCell id="Um8_nvh1hXhyoKsjVqpz-166" style="edgeStyle=orthogonalEdgeStyle;shape=connector;rounded=0;orthogonalLoop=1;jettySize=auto;html=1;exitX=0;exitY=0.5;exitDx=0;exitDy=0;exitPerimeter=0;entryX=0.271;entryY=0.706;entryDx=0;entryDy=0;entryPerimeter=0;strokeColor=default;align=center;verticalAlign=middle;fontFamily=Helvetica;fontSize=11;fontColor=default;labelBackgroundColor=default;endArrow=none;endFill=0;" edge="1" parent="1" source="Um8_nvh1hXhyoKsjVqpz-157" target="Um8_nvh1hXhyoKsjVqpz-99">
          <mxGeometry relative="1" as="geometry" />
        </mxCell>
        <mxCell id="Um8_nvh1hXhyoKsjVqpz-168" style="edgeStyle=orthogonalEdgeStyle;shape=connector;rounded=0;orthogonalLoop=1;jettySize=auto;html=1;exitX=0;exitY=0.5;exitDx=0;exitDy=0;exitPerimeter=0;entryX=1;entryY=0.5;entryDx=0;entryDy=0;entryPerimeter=0;strokeColor=default;align=center;verticalAlign=middle;fontFamily=Helvetica;fontSize=11;fontColor=default;labelBackgroundColor=default;endArrow=none;endFill=0;" edge="1" parent="1" source="Um8_nvh1hXhyoKsjVqpz-160" target="Um8_nvh1hXhyoKsjVqpz-97">
          <mxGeometry relative="1" as="geometry" />
        </mxCell>
        <mxCell id="Um8_nvh1hXhyoKsjVqpz-171" value="" style="edgeStyle=orthogonalEdgeStyle;shape=connector;rounded=0;orthogonalLoop=1;jettySize=auto;html=1;exitX=1;exitY=0;exitDx=0;exitDy=0;exitPerimeter=0;entryDx=0;entryDy=0;entryPerimeter=0;strokeColor=default;align=center;verticalAlign=middle;fontFamily=Helvetica;fontSize=11;fontColor=default;labelBackgroundColor=default;endArrow=none;endFill=0;" edge="1" parent="1" source="Um8_nvh1hXhyoKsjVqpz-159" target="Um8_nvh1hXhyoKsjVqpz-170">
          <mxGeometry relative="1" as="geometry">
            <mxPoint x="1100" y="373" as="sourcePoint" />
            <mxPoint x="1100" y="327" as="targetPoint" />
          </mxGeometry>
        </mxCell>
        <mxCell id="Um8_nvh1hXhyoKsjVqpz-172" style="edgeStyle=orthogonalEdgeStyle;shape=connector;rounded=0;orthogonalLoop=1;jettySize=auto;html=1;strokeColor=default;align=center;verticalAlign=middle;fontFamily=Helvetica;fontSize=11;fontColor=default;labelBackgroundColor=default;endArrow=none;endFill=0;" edge="1" parent="1" source="Um8_nvh1hXhyoKsjVqpz-170">
          <mxGeometry relative="1" as="geometry">
            <mxPoint x="1150" y="480" as="targetPoint" />
            <Array as="points">
              <mxPoint x="1150" y="360" />
              <mxPoint x="1150" y="480" />
            </Array>
          </mxGeometry>
        </mxCell>
        <mxCell id="Um8_nvh1hXhyoKsjVqpz-170" value="" style="shape=waypoint;sketch=0;fillStyle=solid;size=6;pointerEvents=1;points=[];fillColor=none;resizable=0;rotatable=0;perimeter=centerPerimeter;snapToPoint=1;fontFamily=Helvetica;fontSize=11;fontColor=default;labelBackgroundColor=default;" vertex="1" parent="1">
          <mxGeometry x="1090" y="350" width="20" height="20" as="geometry" />
        </mxCell>
        <mxCell id="Um8_nvh1hXhyoKsjVqpz-175" value="" style="shape=waypoint;sketch=0;fillStyle=solid;size=6;pointerEvents=1;points=[];fillColor=none;resizable=0;rotatable=0;perimeter=centerPerimeter;snapToPoint=1;fontFamily=Helvetica;fontSize=11;fontColor=default;labelBackgroundColor=default;" vertex="1" parent="1">
          <mxGeometry x="550" y="270" width="20" height="20" as="geometry" />
        </mxCell>
        <mxCell id="Um8_nvh1hXhyoKsjVqpz-177" value="" style="endArrow=none;html=1;rounded=0;strokeColor=default;align=center;verticalAlign=middle;fontFamily=Helvetica;fontSize=11;fontColor=default;labelBackgroundColor=default;edgeStyle=orthogonalEdgeStyle;" edge="1" parent="1">
          <mxGeometry width="50" height="50" relative="1" as="geometry">
            <mxPoint x="1150" y="480" as="sourcePoint" />
            <mxPoint x="1200" y="480" as="targetPoint" />
            <Array as="points">
              <mxPoint x="1160" y="480" />
              <mxPoint x="1160" y="480" />
            </Array>
          </mxGeometry>
        </mxCell>
        <mxCell id="Um8_nvh1hXhyoKsjVqpz-179" value="Vb1" style="text;html=1;align=center;verticalAlign=middle;whiteSpace=wrap;rounded=0;fontFamily=Helvetica;fontSize=20;fontColor=default;labelBackgroundColor=none;fillColor=none;" vertex="1" parent="1">
          <mxGeometry x="1140" y="120" width="60" height="30" as="geometry" />
        </mxCell>
        <mxCell id="Um8_nvh1hXhyoKsjVqpz-180" value="" style="verticalLabelPosition=bottom;shadow=0;dashed=0;align=center;html=1;verticalAlign=top;shape=mxgraph.electrical.transistors.pmos;pointerEvents=1;flipH=1;" vertex="1" parent="1">
          <mxGeometry x="660" y="370" width="60" height="100" as="geometry" />
        </mxCell>
        <mxCell id="Um8_nvh1hXhyoKsjVqpz-182" value="Vcm_ref" style="text;html=1;align=center;verticalAlign=middle;whiteSpace=wrap;rounded=0;fontFamily=Helvetica;fontSize=20;fontColor=default;labelBackgroundColor=none;" vertex="1" parent="1">
          <mxGeometry x="1120" y="249" width="100" height="30" as="geometry" />
        </mxCell>
        <mxCell id="Um8_nvh1hXhyoKsjVqpz-183" value="Vb2" style="text;html=1;align=center;verticalAlign=middle;whiteSpace=wrap;rounded=0;fontFamily=Helvetica;fontSize=20;fontColor=default;labelBackgroundColor=none;" vertex="1" parent="1">
          <mxGeometry x="1140" y="304" width="60" height="30" as="geometry" />
        </mxCell>
        <mxCell id="Um8_nvh1hXhyoKsjVqpz-184" value="Vb3" style="text;html=1;align=center;verticalAlign=middle;whiteSpace=wrap;rounded=0;fontFamily=Helvetica;fontSize=20;fontColor=default;labelBackgroundColor=none;" vertex="1" parent="1">
          <mxGeometry x="1150" y="450" width="60" height="30" as="geometry" />
        </mxCell>
        <mxCell id="Um8_nvh1hXhyoKsjVqpz-185" value="" style="shape=waypoint;sketch=0;fillStyle=solid;size=6;pointerEvents=1;points=[];fillColor=none;resizable=0;rotatable=0;perimeter=centerPerimeter;snapToPoint=1;fontFamily=Helvetica;fontSize=11;fontColor=default;labelBackgroundColor=default;" vertex="1" parent="1">
          <mxGeometry x="550" y="600" width="20" height="20" as="geometry" />
        </mxCell>
        <mxCell id="Um8_nvh1hXhyoKsjVqpz-186" value="MB1" style="text;html=1;align=center;verticalAlign=middle;whiteSpace=wrap;rounded=0;fontFamily=Helvetica;fontSize=20;fontColor=default;labelBackgroundColor=none;fillColor=none;" vertex="1" parent="1">
          <mxGeometry x="30" y="215" width="60" height="30" as="geometry" />
        </mxCell>
        <mxCell id="Um8_nvh1hXhyoKsjVqpz-187" value="MB2" style="text;html=1;align=center;verticalAlign=middle;whiteSpace=wrap;rounded=0;fontFamily=Helvetica;fontSize=20;fontColor=default;labelBackgroundColor=none;fillColor=none;" vertex="1" parent="1">
          <mxGeometry x="20" y="480" width="60" height="30" as="geometry" />
        </mxCell>
        <mxCell id="Um8_nvh1hXhyoKsjVqpz-188" style="edgeStyle=orthogonalEdgeStyle;shape=connector;rounded=0;orthogonalLoop=1;jettySize=auto;html=1;exitX=0.5;exitY=1;exitDx=0;exitDy=0;strokeColor=default;align=center;verticalAlign=middle;fontFamily=Helvetica;fontSize=11;fontColor=default;labelBackgroundColor=default;endArrow=none;endFill=0;" edge="1" parent="1" source="Um8_nvh1hXhyoKsjVqpz-187" target="Um8_nvh1hXhyoKsjVqpz-187">
          <mxGeometry relative="1" as="geometry" />
        </mxCell>
        <mxCell id="Um8_nvh1hXhyoKsjVqpz-191" style="edgeStyle=orthogonalEdgeStyle;shape=connector;rounded=0;orthogonalLoop=1;jettySize=auto;html=1;exitX=0.5;exitY=0;exitDx=0;exitDy=0;exitPerimeter=0;strokeColor=default;align=center;verticalAlign=middle;fontFamily=Helvetica;fontSize=11;fontColor=default;labelBackgroundColor=default;endArrow=none;endFill=0;" edge="1" parent="1" source="Um8_nvh1hXhyoKsjVqpz-189">
          <mxGeometry relative="1" as="geometry">
            <mxPoint x="610" y="610" as="targetPoint" />
          </mxGeometry>
        </mxCell>
        <mxCell id="Um8_nvh1hXhyoKsjVqpz-189" value="" style="pointerEvents=1;verticalLabelPosition=bottom;shadow=0;dashed=0;align=center;html=1;verticalAlign=top;shape=mxgraph.electrical.signal_sources.signal_ground;fontFamily=Helvetica;fontSize=11;fontColor=default;labelBackgroundColor=default;" vertex="1" parent="1">
          <mxGeometry x="587.5" y="620" width="45" height="30" as="geometry" />
        </mxCell>
        <mxCell id="Um8_nvh1hXhyoKsjVqpz-192" value="" style="shape=waypoint;sketch=0;fillStyle=solid;size=6;pointerEvents=1;points=[];fillColor=none;resizable=0;rotatable=0;perimeter=centerPerimeter;snapToPoint=1;fontFamily=Helvetica;fontSize=11;fontColor=default;labelBackgroundColor=default;" vertex="1" parent="1">
          <mxGeometry x="600" y="600" width="20" height="20" as="geometry" />
        </mxCell>
        <mxCell id="Um8_nvh1hXhyoKsjVqpz-193" value="MB3" style="text;html=1;align=center;verticalAlign=middle;whiteSpace=wrap;rounded=0;fontFamily=Helvetica;fontSize=20;fontColor=default;labelBackgroundColor=none;fillColor=none;" vertex="1" parent="1">
          <mxGeometry x="100" y="390" width="60" height="30" as="geometry" />
        </mxCell>
        <mxCell id="Um8_nvh1hXhyoKsjVqpz-194" value="MB4" style="text;html=1;align=center;verticalAlign=middle;whiteSpace=wrap;rounded=0;fontFamily=Helvetica;fontSize=20;fontColor=default;labelBackgroundColor=none;fillColor=none;" vertex="1" parent="1">
          <mxGeometry x="180" y="230" width="60" height="30" as="geometry" />
        </mxCell>
        <mxCell id="Um8_nvh1hXhyoKsjVqpz-195" value="MB6" style="text;html=1;align=center;verticalAlign=middle;whiteSpace=wrap;rounded=0;fontFamily=Helvetica;fontSize=20;fontColor=default;labelBackgroundColor=none;fillColor=none;" vertex="1" parent="1">
          <mxGeometry x="180" y="500" width="60" height="30" as="geometry" />
        </mxCell>
        <mxCell id="Um8_nvh1hXhyoKsjVqpz-196" value="MB5" style="text;html=1;align=center;verticalAlign=middle;whiteSpace=wrap;rounded=0;fontFamily=Helvetica;fontSize=20;fontColor=default;labelBackgroundColor=none;fillColor=none;" vertex="1" parent="1">
          <mxGeometry x="330" y="230" width="60" height="30" as="geometry" />
        </mxCell>
        <mxCell id="Um8_nvh1hXhyoKsjVqpz-197" value="MB7" style="text;html=1;align=center;verticalAlign=middle;whiteSpace=wrap;rounded=0;fontFamily=Helvetica;fontSize=20;fontColor=default;labelBackgroundColor=none;fillColor=none;" vertex="1" parent="1">
          <mxGeometry x="330" y="500" width="60" height="30" as="geometry" />
        </mxCell>
        <mxCell id="Um8_nvh1hXhyoKsjVqpz-198" value="MB8" style="text;html=1;align=center;verticalAlign=middle;whiteSpace=wrap;rounded=0;fontFamily=Helvetica;fontSize=20;fontColor=default;labelBackgroundColor=none;fillColor=none;" vertex="1" parent="1">
          <mxGeometry x="480" y="120" width="60" height="30" as="geometry" />
        </mxCell>
        <mxCell id="Um8_nvh1hXhyoKsjVqpz-199" value="MB9" style="text;html=1;align=center;verticalAlign=middle;whiteSpace=wrap;rounded=0;fontFamily=Helvetica;fontSize=20;fontColor=default;labelBackgroundColor=none;fillColor=none;" vertex="1" parent="1">
          <mxGeometry x="480" y="547.14" width="60" height="30" as="geometry" />
        </mxCell>
        <mxCell id="Um8_nvh1hXhyoKsjVqpz-200" value="MB16" style="text;html=1;align=center;verticalAlign=middle;whiteSpace=wrap;rounded=0;fontFamily=Helvetica;fontSize=20;fontColor=default;labelBackgroundColor=none;fillColor=none;" vertex="1" parent="1">
          <mxGeometry x="572.5" y="547.14" width="60" height="30" as="geometry" />
        </mxCell>
        <mxCell id="Um8_nvh1hXhyoKsjVqpz-201" value="MB10" style="text;html=1;align=center;verticalAlign=middle;whiteSpace=wrap;rounded=0;fontFamily=Helvetica;fontSize=20;fontColor=default;labelBackgroundColor=none;fillColor=none;" vertex="1" parent="1">
          <mxGeometry x="600" y="150" width="60" height="30" as="geometry" />
        </mxCell>
        <mxCell id="Um8_nvh1hXhyoKsjVqpz-203" value="MB11" style="text;html=1;align=center;verticalAlign=middle;whiteSpace=wrap;rounded=0;fontFamily=Helvetica;fontSize=20;fontColor=default;labelBackgroundColor=none;fillColor=none;" vertex="1" parent="1">
          <mxGeometry x="730" y="170" width="60" height="30" as="geometry" />
        </mxCell>
        <mxCell id="Um8_nvh1hXhyoKsjVqpz-204" value="MB12" style="text;html=1;align=center;verticalAlign=middle;whiteSpace=wrap;rounded=0;fontFamily=Helvetica;fontSize=20;fontColor=default;labelBackgroundColor=none;fillColor=none;" vertex="1" parent="1">
          <mxGeometry x="600" y="280" width="60" height="30" as="geometry" />
        </mxCell>
        <mxCell id="Um8_nvh1hXhyoKsjVqpz-205" value="MB13" style="text;html=1;align=center;verticalAlign=middle;whiteSpace=wrap;rounded=0;fontFamily=Helvetica;fontSize=20;fontColor=default;labelBackgroundColor=none;fillColor=none;" vertex="1" parent="1">
          <mxGeometry x="720" y="290" width="60" height="30" as="geometry" />
        </mxCell>
        <mxCell id="Um8_nvh1hXhyoKsjVqpz-206" value="MB14" style="text;html=1;align=center;verticalAlign=middle;whiteSpace=wrap;rounded=0;fontFamily=Helvetica;fontSize=20;fontColor=default;labelBackgroundColor=none;fillColor=none;" vertex="1" parent="1">
          <mxGeometry x="610" y="405" width="60" height="30" as="geometry" />
        </mxCell>
        <mxCell id="Um8_nvh1hXhyoKsjVqpz-207" value="MB15" style="text;html=1;align=center;verticalAlign=middle;whiteSpace=wrap;rounded=0;fontFamily=Helvetica;fontSize=20;fontColor=default;labelBackgroundColor=none;fillColor=none;" vertex="1" parent="1">
          <mxGeometry x="750" y="402.14" width="60" height="30" as="geometry" />
        </mxCell>
        <mxCell id="Um8_nvh1hXhyoKsjVqpz-208" value="MB17" style="text;html=1;align=center;verticalAlign=middle;whiteSpace=wrap;rounded=0;fontFamily=Helvetica;fontSize=20;fontColor=default;labelBackgroundColor=none;fillColor=none;" vertex="1" parent="1">
          <mxGeometry x="740" y="547.14" width="60" height="30" as="geometry" />
        </mxCell>
        <mxCell id="Um8_nvh1hXhyoKsjVqpz-209" value="MB18" style="text;html=1;align=center;verticalAlign=middle;whiteSpace=wrap;rounded=0;fontFamily=Helvetica;fontSize=20;fontColor=default;labelBackgroundColor=none;fillColor=none;" vertex="1" parent="1">
          <mxGeometry x="880" y="150" width="60" height="30" as="geometry" />
        </mxCell>
        <mxCell id="Um8_nvh1hXhyoKsjVqpz-210" value="MB19" style="text;html=1;align=center;verticalAlign=middle;whiteSpace=wrap;rounded=0;fontFamily=Helvetica;fontSize=20;fontColor=default;labelBackgroundColor=none;fillColor=none;" vertex="1" parent="1">
          <mxGeometry x="880" y="279" width="60" height="30" as="geometry" />
        </mxCell>
        <mxCell id="Um8_nvh1hXhyoKsjVqpz-211" value="MB20" style="text;html=1;align=center;verticalAlign=middle;whiteSpace=wrap;rounded=0;fontFamily=Helvetica;fontSize=20;fontColor=default;labelBackgroundColor=none;fillColor=none;" vertex="1" parent="1">
          <mxGeometry x="880" y="547.14" width="60" height="30" as="geometry" />
        </mxCell>
        <mxCell id="Um8_nvh1hXhyoKsjVqpz-212" value="MB21" style="text;html=1;align=center;verticalAlign=middle;whiteSpace=wrap;rounded=0;fontFamily=Helvetica;fontSize=20;fontColor=default;labelBackgroundColor=none;fillColor=none;" vertex="1" parent="1">
          <mxGeometry x="1010" y="150" width="60" height="30" as="geometry" />
        </mxCell>
        <mxCell id="Um8_nvh1hXhyoKsjVqpz-215" value="MB22" style="text;html=1;align=center;verticalAlign=middle;whiteSpace=wrap;rounded=0;fontFamily=Helvetica;fontSize=20;fontColor=default;labelBackgroundColor=none;fillColor=none;" vertex="1" parent="1">
          <mxGeometry x="1010" y="280" width="60" height="30" as="geometry" />
        </mxCell>
        <mxCell id="Um8_nvh1hXhyoKsjVqpz-216" value="MB23" style="text;html=1;align=center;verticalAlign=middle;whiteSpace=wrap;rounded=0;fontFamily=Helvetica;fontSize=20;fontColor=default;labelBackgroundColor=none;fillColor=none;" vertex="1" parent="1">
          <mxGeometry x="1010" y="420" width="60" height="30" as="geometry" />
        </mxCell>
        <mxCell id="Um8_nvh1hXhyoKsjVqpz-217" value="MB24" style="text;html=1;align=center;verticalAlign=middle;whiteSpace=wrap;rounded=0;fontFamily=Helvetica;fontSize=20;fontColor=default;labelBackgroundColor=none;fillColor=none;" vertex="1" parent="1">
          <mxGeometry x="1010" y="547.14" width="60" height="30" as="geometry" />
        </mxCell>
        <mxCell id="Um8_nvh1hXhyoKsjVqpz-219" style="edgeStyle=orthogonalEdgeStyle;shape=connector;rounded=0;orthogonalLoop=1;jettySize=auto;html=1;exitX=0;exitY=0.5;exitDx=0;exitDy=0;exitPerimeter=0;strokeColor=default;align=center;verticalAlign=middle;fontFamily=Helvetica;fontSize=11;fontColor=default;labelBackgroundColor=default;endArrow=none;endFill=0;" edge="1" parent="1" source="Um8_nvh1hXhyoKsjVqpz-218">
          <mxGeometry relative="1" as="geometry">
            <mxPoint x="319.9999999999998" y="90" as="targetPoint" />
          </mxGeometry>
        </mxCell>
        <mxCell id="Um8_nvh1hXhyoKsjVqpz-220" style="edgeStyle=orthogonalEdgeStyle;shape=connector;rounded=0;orthogonalLoop=1;jettySize=auto;html=1;exitX=1;exitY=0.5;exitDx=0;exitDy=0;exitPerimeter=0;strokeColor=default;align=center;verticalAlign=middle;fontFamily=Helvetica;fontSize=11;fontColor=default;labelBackgroundColor=default;endArrow=none;endFill=0;" edge="1" parent="1" source="Um8_nvh1hXhyoKsjVqpz-218">
          <mxGeometry relative="1" as="geometry">
            <mxPoint x="319.9999999999998" y="229.9999999999999" as="targetPoint" />
          </mxGeometry>
        </mxCell>
        <mxCell id="Um8_nvh1hXhyoKsjVqpz-218" value="" style="pointerEvents=1;verticalLabelPosition=bottom;shadow=0;dashed=0;align=center;html=1;verticalAlign=top;shape=mxgraph.electrical.capacitors.capacitor_1;fontFamily=Helvetica;fontSize=11;fontColor=default;labelBackgroundColor=default;direction=south;" vertex="1" parent="1">
          <mxGeometry x="310" y="130" width="20" height="70" as="geometry" />
        </mxCell>
        <mxCell id="Um8_nvh1hXhyoKsjVqpz-222" value="" style="edgeStyle=orthogonalEdgeStyle;shape=connector;rounded=0;orthogonalLoop=1;jettySize=auto;html=1;exitX=0;exitY=0.5;exitDx=0;exitDy=0;exitPerimeter=0;entryDx=0;entryDy=0;entryPerimeter=0;strokeColor=default;align=center;verticalAlign=middle;fontFamily=Helvetica;fontSize=11;fontColor=default;labelBackgroundColor=default;endArrow=none;endFill=0;" edge="1" parent="1" source="Um8_nvh1hXhyoKsjVqpz-14" target="Um8_nvh1hXhyoKsjVqpz-221">
          <mxGeometry relative="1" as="geometry">
            <mxPoint x="300" y="230" as="sourcePoint" />
            <mxPoint x="350" y="230" as="targetPoint" />
          </mxGeometry>
        </mxCell>
        <mxCell id="Um8_nvh1hXhyoKsjVqpz-221" value="" style="shape=waypoint;sketch=0;fillStyle=solid;size=6;pointerEvents=1;points=[];fillColor=none;resizable=0;rotatable=0;perimeter=centerPerimeter;snapToPoint=1;fontFamily=Helvetica;fontSize=11;fontColor=default;labelBackgroundColor=default;" vertex="1" parent="1">
          <mxGeometry x="310" y="220" width="20" height="20" as="geometry" />
        </mxCell>
        <mxCell id="Um8_nvh1hXhyoKsjVqpz-224" value="" style="endArrow=none;html=1;rounded=0;" edge="1" parent="1" target="Um8_nvh1hXhyoKsjVqpz-223">
          <mxGeometry width="50" height="50" relative="1" as="geometry">
            <mxPoint x="60" y="89.99999999999994" as="sourcePoint" />
            <mxPoint x="610" y="90" as="targetPoint" />
          </mxGeometry>
        </mxCell>
        <mxCell id="Um8_nvh1hXhyoKsjVqpz-223" value="" style="shape=waypoint;sketch=0;fillStyle=solid;size=6;pointerEvents=1;points=[];fillColor=none;resizable=0;rotatable=0;perimeter=centerPerimeter;snapToPoint=1;fontFamily=Helvetica;fontSize=11;fontColor=default;labelBackgroundColor=default;" vertex="1" parent="1">
          <mxGeometry x="310" y="80" width="20" height="20" as="geometry" />
        </mxCell>
        <mxCell id="Um8_nvh1hXhyoKsjVqpz-225" value="C" style="text;html=1;align=center;verticalAlign=middle;whiteSpace=wrap;rounded=0;fontFamily=Helvetica;fontSize=20;fontColor=default;labelBackgroundColor=none;fillColor=none;" vertex="1" parent="1">
          <mxGeometry x="260" y="150" width="60" height="30" as="geometry" />
        </mxCell>
        <mxCell id="Um8_nvh1hXhyoKsjVqpz-226" value="C" style="text;html=1;align=center;verticalAlign=middle;whiteSpace=wrap;rounded=0;fontFamily=Helvetica;fontSize=20;fontColor=default;labelBackgroundColor=none;fillColor=none;" vertex="1" parent="1">
          <mxGeometry x="260" y="535" width="60" height="30" as="geometry" />
        </mxCell>
        <mxCell id="Um8_nvh1hXhyoKsjVqpz-227" value="Rs" style="text;html=1;align=center;verticalAlign=middle;whiteSpace=wrap;rounded=0;fontFamily=Helvetica;fontSize=20;fontColor=default;labelBackgroundColor=none;fillColor=none;" vertex="1" parent="1">
          <mxGeometry x="355" y="555" width="60" height="30" as="geometry" />
        </mxCell>
      </root>
    </mxGraphModel>
  </diagram>
</mxfile>
